<svg id="Layer_1" data-name="Layer 1" xmlns="http://www.w3.org/2000/svg" viewBox="0 12 104 12"><defs><style>.cls-1{fill:#231f20;}</style></defs><title>Artboard 1</title><path class="cls-1" d="M1.82,18.8v-.46L3,17.59C4.24,16.84,4.4,16.43,4.4,16a.89.89,0,0,0-.55-.77H2.2l.33-.66h1.6a1.48,1.48,0,0,1,1.1,1.21c0,1-.94,1.6-2.37,2.34H5.34l.11-.58h.33V18.8Z"/><path class="cls-1" d="M9.82,18.6v1.87l-.74.25V18.6H6.66v-.37l2.48-3.72h.68v3.58h1.13v.52Zm-.74-3.32L7.26,18.08H9.08Z"/><path class="cls-1" d="M13.42,19c-.5,0-2-.39-2-1.65,0-.77.77-1.27,1.34-1.54-.57-.27-1.12-.66-1.12-1.38,0-.88.88-1.43,1.65-1.65.44,0,1.76.44,1.76,1.43,0,.66-.5,1-1.1,1.37.71.33,1.34.77,1.34,1.54C15.32,18.08,14.3,18.74,13.42,19Zm-.24-3a1.64,1.64,0,0,0-1,1.3c0,.66.71,1.1,1.27,1.27a1.43,1.43,0,0,0,1-1.27C14.47,16.65,13.86,16.27,13.18,16Zm.08-2.77a1.17,1.17,0,0,0-.8,1c0,.49.53.82,1.13,1.13a1.4,1.4,0,0,0,.72-1.13C14.3,13.68,13.75,13.35,13.26,13.19Z"/><path class="cls-1" d="M19,16.87H16.56l.22-.71H19.2Z"/><path class="cls-1" d="M22.11,19c-.5,0-2-.39-2-1.65,0-.77.77-1.27,1.34-1.54-.57-.27-1.12-.66-1.12-1.38,0-.88.88-1.43,1.65-1.65.44,0,1.76.44,1.76,1.43,0,.66-.5,1-1.1,1.37.71.33,1.34.77,1.34,1.54C24,18.08,23,18.74,22.11,19Zm-.24-3a1.64,1.64,0,0,0-1,1.3c0,.66.71,1.1,1.27,1.27a1.43,1.43,0,0,0,1-1.27C23.16,16.65,22.55,16.27,21.87,16Zm.08-2.77a1.17,1.17,0,0,0-.8,1c0,.49.53.82,1.13,1.13A1.4,1.4,0,0,0,23,14.23C23,13.68,22.44,13.35,21.95,13.19Z"/><path class="cls-1" d="M27.39,19c-1,0-2.53-.66-2.53-2.15A2.7,2.7,0,0,1,27,14.4c1,0,2.53.66,2.53,2.15A2.7,2.7,0,0,1,27.39,19Zm-.33-4a1.65,1.65,0,0,0-1.38,1.71,1.68,1.68,0,0,0,1.6,1.65,1.65,1.65,0,0,0,1.38-1.71A1.68,1.68,0,0,0,27.06,15Z"/><path class="cls-1" d="M32,19c-.5,0-2-.39-2-1.65,0-.77.77-1.27,1.34-1.54-.57-.27-1.12-.66-1.12-1.38,0-.88.88-1.43,1.65-1.65.44,0,1.76.44,1.76,1.43,0,.66-.5,1-1.1,1.37.71.33,1.34.77,1.34,1.54C33.91,18.08,32.89,18.74,32,19Zm-.24-3a1.64,1.64,0,0,0-1,1.3c0,.66.71,1.1,1.27,1.27a1.43,1.43,0,0,0,1-1.27C33.06,16.65,32.45,16.27,31.77,16Zm.08-2.77a1.17,1.17,0,0,0-.8,1c0,.49.53.82,1.13,1.13a1.4,1.4,0,0,0,.72-1.13C32.89,13.68,32.34,13.35,31.85,13.19Z"/><path class="cls-1" d="M37.57,16.87H35.15l.22-.71h2.42Z"/><path class="cls-1" d="M40.7,19c-.5,0-2-.39-2-1.65,0-.77.77-1.27,1.34-1.54-.57-.27-1.12-.66-1.12-1.38,0-.88.88-1.43,1.65-1.65.44,0,1.76.44,1.76,1.43,0,.66-.5,1-1.1,1.37.71.33,1.34.77,1.34,1.54C42.6,18.08,41.58,18.74,40.7,19Zm-.24-3a1.64,1.64,0,0,0-1,1.3c0,.66.71,1.1,1.27,1.27a1.43,1.43,0,0,0,1-1.27C41.75,16.65,41.14,16.27,40.46,16Zm.08-2.77a1.17,1.17,0,0,0-.8,1c0,.49.53.82,1.13,1.13a1.4,1.4,0,0,0,.72-1.13C41.58,13.68,41,13.35,40.54,13.19Z"/><path class="cls-1" d="M43.84,20.72v-.44a3.4,3.4,0,0,0,3-3.08,2.17,2.17,0,0,0-1.65-2.26,1.69,1.69,0,0,0-.88,1.43A1.24,1.24,0,0,0,45.6,17.7a1.78,1.78,0,0,0,.77-.22,1.3,1.3,0,0,1-1.15.77,1.64,1.64,0,0,1-1.71-1.71,2.5,2.5,0,0,1,1.93-2.15A2.54,2.54,0,0,1,47.63,17C47.63,19.13,45.6,20.5,43.84,20.72Z"/><path class="cls-1" d="M50.77,19c-1,0-2.53-.66-2.53-2.15a2.7,2.7,0,0,1,2.09-2.42c1,0,2.53.66,2.53,2.15A2.7,2.7,0,0,1,50.77,19Zm-.33-4a1.65,1.65,0,0,0-1.38,1.71,1.68,1.68,0,0,0,1.6,1.65A1.65,1.65,0,0,0,52,16.65,1.68,1.68,0,0,0,50.44,15Z"/><path class="cls-1" d="M55.83,19c-.5,0-2-.39-2-1.65,0-.77.77-1.27,1.34-1.54-.57-.27-1.12-.66-1.12-1.38,0-.88.88-1.43,1.65-1.65.44,0,1.76.44,1.76,1.43,0,.66-.49,1-1.1,1.37.71.33,1.34.77,1.34,1.54C57.72,18.08,56.71,18.74,55.83,19Zm-.24-3a1.64,1.64,0,0,0-1,1.3c0,.66.71,1.1,1.27,1.27a1.43,1.43,0,0,0,1-1.27C56.87,16.65,56.27,16.27,55.59,16Zm.08-2.77a1.17,1.17,0,0,0-.8,1c0,.49.53.82,1.13,1.13a1.4,1.4,0,0,0,.72-1.13C56.71,13.68,56.16,13.35,55.66,13.19Z"/></svg>