<svg id="Layer_1" data-name="Layer 1" xmlns="http://www.w3.org/2000/svg" viewBox="0 0 104 12"><defs><style>.cls-1{fill:#444444;}</style></defs><title>Artboard 1</title><path class="cls-1" d="M4.88,6.1l-2.46.82a1.75,1.75,0,0,0,1,1.28h1L5.12,8V8.2a2.64,2.64,0,0,1-2,.78H3a2.45,2.45,0,0,1-1.5-2.16,2.65,2.65,0,0,1,1.8-2.46h.06A1.73,1.73,0,0,1,5.18,5.8ZM3.26,4.84a1.79,1.79,0,0,0-.9,1.56L4.1,6l.24-.24A1.16,1.16,0,0,0,3.26,4.84Z"/><path class="cls-1" d="M11.3,8.8V8.38h.36l.24-.12V6.34c0-.84-.48-1.2-1-1.2h-.36l-.6.3V8.38h.53V8.8h-2V8.38H8.9l.24-.12V5.92a1,1,0,0,0-1-.78h-.3l-.6.3V8.38h.54V8.8h-2V8.38h.36l.24-.12V5.32H5.66a1.87,1.87,0,0,1,1.56-1v.72A3.09,3.09,0,0,1,8.3,4.36h.06a1.75,1.75,0,0,1,1.38.78,3.2,3.2,0,0,1,1.2-.78H11A1.72,1.72,0,0,1,12.74,6V8.38h.53V8.8Z"/><path class="cls-1" d="M16.76,9c-.24,0-.48-.36-.54-.72a2.25,2.25,0,0,1-1.38.66c-.54,0-1-.54-1-1.32V7.54A5.06,5.06,0,0,1,15.5,6.46l.72-.24.06-.06V6a.86.86,0,0,0-.84-1H15.2l-.48.24V6h-.9a2.39,2.39,0,0,1,1.92-1.68h.06A1.48,1.48,0,0,1,17.12,5.8V7.9a.32.32,0,0,0,.36.36h.6A1.74,1.74,0,0,1,16.76,9Zm-.48-2.16h-.66l-.84.42-.12.24a.71.71,0,0,0,.72.78h.24l.66-.32Z"/><path class="cls-1" d="M18.5,8.8V8.38h.36l.24-.12V5.32h-.72a1.87,1.87,0,0,1,1.56-1v4h.54V8.8Zm1-5.61A.56.56,0,1,1,20,2.62.55.55,0,0,1,19.46,3.19Z"/><path class="cls-1" d="M21.14,8.8V8.38h.36l.24-.12V2.2H21a1.87,1.87,0,0,1,1.56-1V8.38h.54V8.8Z"/><path class="cls-1" d="M28.28,8.65h0l.45-2.2-.3.45a8.06,8.06,0,0,1-1.6,1.8,2.18,2.18,0,0,1-.2-2.65,2.59,2.59,0,0,1,2.35-.95l.7-.2L29,8.15h0A3.35,3.35,0,0,0,31,5.7c.25-1.25-.75-2.15-2.15-2.35A5,5,0,0,0,25,6.55a2.56,2.56,0,0,0,2.35,3.55l-.45.45a2.91,2.91,0,0,1-2.7-3.8c.6-2.4,3-3.65,5.1-3.8,1.65.2,2.75,1.2,2.4,2.8A3.91,3.91,0,0,1,28.28,8.65Zm.35-3.3a1.75,1.75,0,0,0-1.45.8,1.92,1.92,0,0,0,0,1.8,5.13,5.13,0,0,0,1.15-1.3,5.7,5.7,0,0,0,.65-1.15Z"/><path class="cls-1" d="M33,8.8V8.38h.36l.24-.12V2.2h-.72a1.87,1.87,0,0,1,1.56-1V8.38H35V8.8Z"/><path class="cls-1" d="M38.2,9h-.06a2.23,2.23,0,0,1-2.46-2.22,2.63,2.63,0,0,1,1.92-2.4h.06a2.23,2.23,0,0,1,2.46,2.22A2.63,2.63,0,0,1,38.2,9ZM37.48,4.9a1.93,1.93,0,0,0-.9,1.8,1.78,1.78,0,0,0,1.74,1.74,1.93,1.93,0,0,0,.9-1.8A1.78,1.78,0,0,0,37.48,4.9Z"/><path class="cls-1" d="M44.26,8.92H43.9V8.2a3.17,3.17,0,0,1-1.26.72h-.06A1.51,1.51,0,0,1,41,7.24V5.14h-.6v-.3l1-.3H42l-.12.72V7a1,1,0,0,0,1,1.18h.42l.6-.3V5.14h-.72v-.3l1-.3h.6V8l.14.06L45.46,8v.42Z"/><path class="cls-1" d="M45.82,8.8V8.38h.36l.24-.12V5.32H45.7a1.87,1.87,0,0,1,1.56-1v4h.54V8.8Zm1-5.61a.56.56,0,1,1,.58-.56A.55.55,0,0,1,46.78,3.19Z"/><path class="cls-1" d="M50.26,8.86H48.73L48.37,7.5l.4-.12.18.64a2,2,0,0,0,1.38.42.86.86,0,0,0,.6-.78c0-.42-.36-.54-1-.72s-1.32-.42-1.32-1.14S49.36,4.66,50,4.48h1.5V5.74H51.1V5.2A2.14,2.14,0,0,0,50,4.9c-.24.08-.54.3-.54.6s.42.54,1.08.72,1.2.48,1.2,1.2S51.1,8.62,50.26,8.86Z"/><path class="cls-1" d="M55.66,5.44l-.36.36-.48-.48A1.09,1.09,0,0,0,54,6.46V8.38h.72V8.8H52.54V8.38h.36l.24-.12V5.32h-.72a1.87,1.87,0,0,1,1.56-1V5.5A2.79,2.79,0,0,1,55.3,4.36l.36.36a.52.52,0,0,1,.18.36A.52.52,0,0,1,55.66,5.44Z"/><path class="cls-1" d="M59,9c-.24,0-.48-.36-.54-.72A2.25,2.25,0,0,1,57,8.92c-.54,0-1-.54-1-1.32V7.54A5.06,5.06,0,0,1,57.7,6.46l.72-.24.06-.06V6a.86.86,0,0,0-.84-1H57.4l-.48.24V6H56a2.39,2.39,0,0,1,1.92-1.68H58A1.49,1.49,0,0,1,59.32,5.8V7.9a.32.32,0,0,0,.36.36h.6A1.74,1.74,0,0,1,59,9Zm-.48-2.16h-.66L57,7.24l-.12.24a.71.71,0,0,0,.72.78h.24l.66-.32Z"/><path class="cls-1" d="M66.4,5,64.78,8.9H64.4L63.34,6.26,62.24,8.9h-.4L60.1,5h-.42V4.54H61.6V5H61l1.19,2.7.84-2L62.8,5h-.42V4.54H64.3V5h-.6l1.05,2.7L65.84,5H65.2V4.54h1.68V5Z"/><path class="cls-1" d="M67.06,8.8V8.38h.36l.24-.12V2.2h-.72a1.87,1.87,0,0,1,1.56-1V8.38H69V8.8Z"/><path class="cls-1" d="M69.58,8.8V8.38h.36l.24-.12V5.32h-.72a1.87,1.87,0,0,1,1.56-1v4h.54V8.8Zm1-5.61A.55.55,0,0,1,70,2.62a.58.58,0,1,1,.57.56Z"/><path class="cls-1" d="M75.1,8.8V8.38h.36l.24-.12v-2a1.09,1.09,0,0,0-1.08-1.14h-.48l-.6.3V8.38h.54V8.8h-2V8.38h.36l.24-.12V5.32H72a1.87,1.87,0,0,1,1.56-1V5a3.15,3.15,0,0,1,1.14-.66h.06A1.74,1.74,0,0,1,76.54,6V8.38h.53V8.8Z"/><path class="cls-1" d="M79.3,8.86H77.77L77.41,7.5l.4-.12L78,8a2,2,0,0,0,1.38.42.86.86,0,0,0,.6-.78c0-.42-.36-.54-1-.72s-1.32-.42-1.32-1.14.72-1.14,1.38-1.32h1.5V5.74h-.42V5.2A2.13,2.13,0,0,0,79,4.9c-.24.08-.54.3-.54.6s.42.54,1.08.72,1.2.48,1.2,1.2S80.14,8.62,79.3,8.86Z"/><path class="cls-1" d="M82.54,8.9a.64.64,0,1,1,.66-.64A.64.64,0,0,1,82.54,8.9Z"/><path class="cls-1" d="M86.08,9h-.3a2.41,2.41,0,0,1-1.56-2.16,2.61,2.61,0,0,1,1.86-2.4h.84c.54,0,.84.3.84.6a.68.68,0,0,1-.24.46L86,5a1.63,1.63,0,0,0-.9,1.56A1.78,1.78,0,0,0,86.2,8.2h.9L87.82,8V8.2A2.49,2.49,0,0,1,86.08,9Z"/><path class="cls-1" d="M90.82,9h-.06A2.23,2.23,0,0,1,88.3,6.76a2.63,2.63,0,0,1,1.92-2.4h.06a2.24,2.24,0,0,1,2.46,2.22A2.63,2.63,0,0,1,90.82,9ZM90.1,4.9a1.93,1.93,0,0,0-.9,1.8,1.78,1.78,0,0,0,1.74,1.74,1.93,1.93,0,0,0,.9-1.8A1.78,1.78,0,0,0,90.1,4.9Z"/><path class="cls-1" d="M98.74,8.8V8.38h.36l.24-.12V6.34c0-.84-.48-1.2-1-1.2H98l-.6.3V8.38h.53V8.8H96V8.38h.36l.24-.12V5.92a1,1,0,0,0-1-.78h-.3l-.6.3V8.38h.54V8.8h-2V8.38h.36l.24-.12V5.32H93.1a1.87,1.87,0,0,1,1.56-1v.72a3.1,3.1,0,0,1,1.08-.72h.06a1.75,1.75,0,0,1,1.38.78,3.2,3.2,0,0,1,1.2-.78h.06A1.72,1.72,0,0,1,100.18,6V8.38h.53V8.8Z"/></svg>