<svg id="Layer_1" data-name="Layer 1" xmlns="http://www.w3.org/2000/svg" viewBox="0 0 104 28"><defs><style>.cls-1{fill:#444444;}</style></defs><title>Louis Rawlins</title><path class="cls-1" d="M9.64,13.4H1.93v-1h.7l.8-.2V3.6l-.2-.2H1.93v-1h5.3v1h-.8l-.8.2v8a5.08,5.08,0,0,0,2.8.7l2-2,.6.3A5.38,5.38,0,0,1,9.64,13.4Z"/><path class="cls-1" d="M15.73,13.7h-.1c-2.6,0-4.4-1.6-4.4-3.7s1.8-3.6,3.7-4.1H15c2.6,0,4.4,1.6,4.4,3.7S17.64,13.2,15.73,13.7ZM14.63,7a3.15,3.15,0,0,0-1.3,2.74A3,3,0,0,0,16,12.64a3.15,3.15,0,0,0,1.3-2.74A3,3,0,0,0,14.63,7Z"/><path class="cls-1" d="M26.84,13.6h-.9V12.4a6.84,6.84,0,0,1-2.1,1.2h-.1c-1.6,0-2.7-1-2.7-3v-3H20V6.8l2.1-.6h1.1L23,7.7v2.5c0,1.2.7,1.8,1.5,1.8h.6l.8-.4v-4h-1.2V6.8l2.1-.6h1.1v5.6l.3.2,1-.2v1Z"/><path class="cls-1" d="M29.83,13.4v-1h.7l.4-.2V7.9h-1.4A3.81,3.81,0,0,1,32.93,6v6.4h1v1Zm2.1-9.1a1.2,1.2,0,1,1,1.2-1.2A1.2,1.2,0,0,1,31.93,4.3Z"/><path class="cls-1" d="M38.13,13.54h-2.9l-.6-2.4.94-.24L35.83,12a3.48,3.48,0,0,0,2.2.64,1.05,1.05,0,0,0,.8-1c0-.6-.6-.84-1.7-1.2S35,9.5,35,8.3c0-1,1.1-1.9,2.4-2.24h2.9V8.2h-.9V7.44A3.65,3.65,0,0,0,37.53,7a.85.85,0,0,0-.7.76c0,.54.5.8,1.5,1.08,1.5.42,2.4,1,2.4,2.26C40.73,12.2,39.53,13.2,38.13,13.54Z"/><path class="cls-1" d="M55.74,13.4a3.12,3.12,0,0,1-3-1.5L50.57,8.8h-1v3.4l.2.2h1.2v1h-5.1v-1h.7l.8-.2V3.6l-.2-.2h-1.3v-1h4.5c2.6,0,4.5,1,4.5,2.8a3.88,3.88,0,0,1-2,3L55,11.4c.62.9.8,1,1.4,1h.5v1ZM49.53,3.3V7.9h2.1a3,3,0,0,0,.94-2.3C52.58,4.4,51.63,3.3,49.53,3.3Z"/><path class="cls-1" d="M62.53,13.7c-.4,0-1-.6-1.2-1.3a3.48,3.48,0,0,1-2.2,1.2,2.06,2.06,0,0,1-2-2.2v-.3a10.36,10.36,0,0,1,3.2-1.8l.9-.3.1-.1V8.6a1.43,1.43,0,0,0-1.4-1.4h-.2l-.6.3V9H57a4.31,4.31,0,0,1,3.6-3.1h.1a2.62,2.62,0,0,1,2.6,2.4v3.4a.53.53,0,0,0,.6.6h1A2.81,2.81,0,0,1,62.53,13.7Zm-1.2-3.6h-1.1l-1,.5L59,11v.3a.89.89,0,0,0,.9.9h.4l1-.5Z"/><path class="cls-1" d="M76.54,7.2l-2.9,6.3h-1.1l-1.7-3.86L69,13.5h-1.1l-3-6.3h-.8v-1H68v1h-.9l1.8,3.9,1.3-2.8-.5-1.1h-.6v-1h3.6v1h-.9l1.7,3.8,1.64-3.8h-1v-1h3.2v1Z"/><path class="cls-1" d="M77.23,13.4v-1h.7l.4-.2V2.7h-1.4A3.81,3.81,0,0,1,80.33.8V12.4h1v1Z"/><path class="cls-1" d="M82.13,13.4v-1h.7l.4-.2V7.9h-1.4A3.81,3.81,0,0,1,85.23,6v6.4h1v1Zm2.1-9.1a1.2,1.2,0,1,1,1.2-1.2A1.2,1.2,0,0,1,84.23,4.3Z"/><path class="cls-1" d="M92,13.4v-1h.7l.4-.2v-3a1.5,1.5,0,0,0-1.5-1.6h-.7l-.8.4v4.4h1v1H87v-1h.7l.4-.2V7.9h-1.4A3.81,3.81,0,0,1,90.13,6V7.3A6.21,6.21,0,0,1,92,5.9h.1a3,3,0,0,1,3,3.1v3.4h1v1Z"/><path class="cls-1" d="M100.23,13.54h-2.9l-.6-2.4.94-.24L97.93,12a3.48,3.48,0,0,0,2.2.64,1.05,1.05,0,0,0,.8-1c0-.6-.6-.84-1.7-1.2s-2.1-.9-2.1-2.1c0-1,1.1-1.9,2.4-2.24h2.9V8.2h-.9V7.44A3.65,3.65,0,0,0,99.63,7a.85.85,0,0,0-.7.76c0,.54.5.8,1.5,1.08,1.5.42,2.4,1,2.4,2.26C102.83,12.2,101.63,13.2,100.23,13.54Z"/><path class="cls-1" d="M5.74,24.17v-.42H6.4l.18-.18L6,21.89H3.64L3,23.57l.18.18h.66v.42H1.66v-.42h.42l.36-.12L4.6,17.82v-.24h.9l2.16,6.06.36.12h.42v.42Zm-.88-5.64-1,2.88h2Z"/><path class="cls-1" d="M11.86,20.81l-.36.36L11,20.69a1.09,1.09,0,0,0-.84,1.14v1.92h.72v.42H8.74v-.42H9.1l.24-.12V20.69H8.62a1.87,1.87,0,0,1,1.56-1v1.14a2.79,2.79,0,0,1,1.32-1.14l.36.36a.45.45,0,0,1,0,.72Z"/><path class="cls-1" d="M14.08,24.32a1.06,1.06,0,0,1-1-.92l.08-.18V20.4h-.66a2.32,2.32,0,0,1,1.62-1.26l-.2.78h1.64v.54H14V23a.52.52,0,0,0,.54.6h1.14A2.15,2.15,0,0,1,14.08,24.32Z"/><path class="cls-1" d="M16,24.17v-.42h.36l.24-.12V20.69h-.72a1.87,1.87,0,0,1,1.56-1v4H18v.42Zm1-5.61a.56.56,0,1,1,.58-.56A.55.55,0,0,1,17,18.56Z"/><path class="cls-1" d="M20.44,24.23H18.9l-.36-1.36.4-.12.18.64a2,2,0,0,0,1.38.42.86.86,0,0,0,.6-.78c0-.42-.36-.54-1-.72s-1.32-.42-1.32-1.14.72-1.14,1.38-1.32h1.5v1.26h-.42v-.54a2.13,2.13,0,0,0-1.14-.3c-.24.08-.54.3-.54.6s.42.54,1.08.72,1.2.48,1.2,1.2S21.28,24,20.44,24.23Z"/><path class="cls-1" d="M24.22,24.32a1.06,1.06,0,0,1-1-.92l.08-.18V20.4H22.6a2.32,2.32,0,0,1,1.62-1.26l-.2.78h1.64v.54H24.1V23a.52.52,0,0,0,.54.6h1.14A2.15,2.15,0,0,1,24.22,24.32Z"/><path class="cls-1" d="M27.16,24.77h-.54l3.9-7.8h.54Z"/><path class="cls-1" d="M36.34,24.17H31.9v-.42h.42l.42-.12V18.12L32.62,18H31.9v-.42h4.68V18.9H36.1v-.6L35,18H33.7v2.52h1.68l.42-.12v-.48h.48v1.74H35.8v-.54L35.38,21H33.7v2.4a3.92,3.92,0,0,0,1.92.36l1.2-1.2.24.18A3.87,3.87,0,0,1,36.34,24.17Z"/><path class="cls-1" d="M40.42,24.17v-.42h.36l.24-.12v-2a1.09,1.09,0,0,0-1.08-1.14h-.48l-.6.3v2.94h.54v.42h-2v-.42h.36l.24-.12V20.69H37.3a1.87,1.87,0,0,1,1.56-1v.66A3.15,3.15,0,0,1,40,19.74h.06a1.74,1.74,0,0,1,1.8,1.68v2.34h.53v.42Z"/><path class="cls-1" d="M44,27.11h-.6A1.48,1.48,0,0,1,42.82,26c0-.6.36-1,.9-1.38l-.84-.84,1.2-.6a1.62,1.62,0,0,1-1.2-1.5c0-1.14,1.14-1.74,1.86-1.92a2.53,2.53,0,0,1,.72.18h1.68v.36H46.06a1.48,1.48,0,0,1,.54,1.14c0,1-.72,1.56-1.74,1.86l-1,.3.42.42h1.92a1,1,0,0,1,1.08,1C47.26,25.85,46.3,27.11,44,27.11Zm2-2.34h-2.1l-.3.6v.3c0,.6.36.78.84.78h1.26a1.48,1.48,0,0,0,.84-1.14A.5.5,0,0,0,45.94,24.77Zm-1.56-4.56a1.39,1.39,0,0,0,.72,2.58,1.55,1.55,0,0,0,.66-1.26A1.31,1.31,0,0,0,44.38,20.21Z"/><path class="cls-1" d="M47.5,24.17v-.42h.36l.24-.12V20.69h-.72a1.87,1.87,0,0,1,1.56-1v4h.54v.42Zm1-5.61A.56.56,0,1,1,49,18,.55.55,0,0,1,48.46,18.56Z"/><path class="cls-1" d="M53,24.17v-.42h.36l.24-.12v-2a1.09,1.09,0,0,0-1.08-1.14h-.48l-.6.3v2.94H52v.42H50v-.42h.36l.24-.12V20.69H49.9a1.87,1.87,0,0,1,1.56-1v.66a3.15,3.15,0,0,1,1.14-.66h.06a1.74,1.74,0,0,1,1.8,1.68v2.34H55v.42Z"/><path class="cls-1" d="M58.84,21.47l-2.46.82a1.75,1.75,0,0,0,1,1.28h1l.72-.24v.24a2.64,2.64,0,0,1-2,.78h-.18a2.45,2.45,0,0,1-1.5-2.16,2.65,2.65,0,0,1,1.8-2.46h.06a1.73,1.73,0,0,1,1.86,1.44Zm-1.62-1.26a1.79,1.79,0,0,0-.9,1.56l1.74-.4.24-.24A1.16,1.16,0,0,0,57.22,20.21Z"/><path class="cls-1" d="M62.92,21.47l-2.46.82a1.75,1.75,0,0,0,1,1.28h1l.72-.24v.24a2.64,2.64,0,0,1-2,.78H61a2.45,2.45,0,0,1-1.5-2.16,2.65,2.65,0,0,1,1.8-2.46h.06a1.73,1.73,0,0,1,1.86,1.44ZM61.3,20.21a1.79,1.79,0,0,0-.9,1.56l1.74-.4.24-.24A1.16,1.16,0,0,0,61.3,20.21Z"/><path class="cls-1" d="M66.94,20.81l-.36.36-.48-.48a1.09,1.09,0,0,0-.84,1.14v1.92H66v.42H63.82v-.42h.36l.24-.12V20.69H63.7a1.87,1.87,0,0,1,1.56-1v1.14a2.79,2.79,0,0,1,1.32-1.14l.36.36a.45.45,0,0,1,0,.72Z"/></svg>