<svg id="Layer_1" data-name="Layer 1" xmlns="http://www.w3.org/2000/svg" viewBox="0 0 104 18"><defs><style>.cls-1{fill:#444444;}</style></defs><title>Louis Rawlins</title><path class="cls-1" d="M9.64,13.4H1.93v-1h.7l.8-.2V3.6l-.2-.2H1.93v-1h5.3v1h-.8l-.8.2v8a5.08,5.08,0,0,0,2.8.7l2-2,.6.3A5.38,5.38,0,0,1,9.64,13.4Z"/><path class="cls-1" d="M15.73,13.7h-.1c-2.6,0-4.4-1.6-4.4-3.7s1.8-3.6,3.7-4.1H15c2.6,0,4.4,1.6,4.4,3.7S17.64,13.2,15.73,13.7ZM14.63,7a3.15,3.15,0,0,0-1.3,2.74A3,3,0,0,0,16,12.64a3.15,3.15,0,0,0,1.3-2.74A3,3,0,0,0,14.63,7Z"/><path class="cls-1" d="M26.84,13.6h-.9V12.4a6.84,6.84,0,0,1-2.1,1.2h-.1c-1.6,0-2.7-1-2.7-3v-3H20V6.8l2.1-.6h1.1L23,7.7v2.5c0,1.2.7,1.8,1.5,1.8h.6l.8-.4v-4h-1.2V6.8l2.1-.6h1.1v5.6l.3.2,1-.2v1Z"/><path class="cls-1" d="M29.83,13.4v-1h.7l.4-.2V7.9h-1.4A3.81,3.81,0,0,1,32.93,6v6.4h1v1Zm2.1-9.1a1.2,1.2,0,1,1,1.2-1.2A1.2,1.2,0,0,1,31.93,4.3Z"/><path class="cls-1" d="M38.13,13.54h-2.9l-.6-2.4.94-.24L35.83,12a3.48,3.48,0,0,0,2.2.64,1.05,1.05,0,0,0,.8-1c0-.6-.6-.84-1.7-1.2S35,9.5,35,8.3c0-1,1.1-1.9,2.4-2.24h2.9V8.2h-.9V7.44A3.65,3.65,0,0,0,37.53,7a.85.85,0,0,0-.7.76c0,.54.5.8,1.5,1.08,1.5.42,2.4,1,2.4,2.26C40.73,12.2,39.53,13.2,38.13,13.54Z"/><path class="cls-1" d="M55.74,13.4a3.12,3.12,0,0,1-3-1.5L50.57,8.8h-1v3.4l.2.2h1.2v1h-5.1v-1h.7l.8-.2V3.6l-.2-.2h-1.3v-1h4.5c2.6,0,4.5,1,4.5,2.8a3.88,3.88,0,0,1-2,3L55,11.4c.62.9.8,1,1.4,1h.5v1ZM49.53,3.3V7.9h2.1a3,3,0,0,0,.94-2.3C52.58,4.4,51.63,3.3,49.53,3.3Z"/><path class="cls-1" d="M62.53,13.7c-.4,0-1-.6-1.2-1.3a3.48,3.48,0,0,1-2.2,1.2,2.06,2.06,0,0,1-2-2.2v-.3a10.36,10.36,0,0,1,3.2-1.8l.9-.3.1-.1V8.6a1.43,1.43,0,0,0-1.4-1.4h-.2l-.6.3V9H57a4.31,4.31,0,0,1,3.6-3.1h.1a2.62,2.62,0,0,1,2.6,2.4v3.4a.53.53,0,0,0,.6.6h1A2.81,2.81,0,0,1,62.53,13.7Zm-1.2-3.6h-1.1l-1,.5L59,11v.3a.89.89,0,0,0,.9.9h.4l1-.5Z"/><path class="cls-1" d="M76.54,7.2l-2.9,6.3h-1.1l-1.7-3.86L69,13.5h-1.1l-3-6.3h-.8v-1H68v1h-.9l1.8,3.9,1.3-2.8-.5-1.1h-.6v-1h3.6v1h-.9l1.7,3.8,1.64-3.8h-1v-1h3.2v1Z"/><path class="cls-1" d="M77.23,13.4v-1h.7l.4-.2V2.7h-1.4A3.81,3.81,0,0,1,80.33.8V12.4h1v1Z"/><path class="cls-1" d="M82.13,13.4v-1h.7l.4-.2V7.9h-1.4A3.81,3.81,0,0,1,85.23,6v6.4h1v1Zm2.1-9.1a1.2,1.2,0,1,1,1.2-1.2A1.2,1.2,0,0,1,84.23,4.3Z"/><path class="cls-1" d="M92,13.4v-1h.7l.4-.2v-3a1.5,1.5,0,0,0-1.5-1.6h-.7l-.8.4v4.4h1v1H87v-1h.7l.4-.2V7.9h-1.4A3.81,3.81,0,0,1,90.13,6V7.3A6.21,6.21,0,0,1,92,5.9h.1a3,3,0,0,1,3,3.1v3.4h1v1Z"/><path class="cls-1" d="M100.23,13.54h-2.9l-.6-2.4.94-.24L97.93,12a3.48,3.48,0,0,0,2.2.64,1.05,1.05,0,0,0,.8-1c0-.6-.6-.84-1.7-1.2s-2.1-.9-2.1-2.1c0-1,1.1-1.9,2.4-2.24h2.9V8.2h-.9V7.44A3.65,3.65,0,0,0,99.63,7a.85.85,0,0,0-.7.76c0,.54.5.8,1.5,1.08,1.5.42,2.4,1,2.4,2.26C102.83,12.2,101.63,13.2,100.23,13.54Z"/></svg>