<svg xmlns="http://www.w3.org/2000/svg" viewBox="0 0 941 805"><defs><style>.cls-1{fill:#55a6f0;}.cls-2{fill:#ffcc6d;}.cls-3{fill:#fff;}.cls-4{fill:#231f20;}</style></defs><title>Lean Life Buddha</title><g id="colour1"><path class="cls-1" d="M165,654c-11,0-24,5-35,8s-29,8-26,23c5,22,39,17,51,31-13,5-44,23-24,37,10,7,23,7,34,10,11,2,21,4,31,5,22,2,47,4,69,1a159.44,159.44,0,0,0,30-6c9-3,18-9,28-9,3,11,12,15,23,16,14,1,18-2,26-13,3-4-2-4,6-4,5,0,11,2,16,2,9,0,19-2,28-5,7-3,4-4,6-9,1-1-2-3,0-6,1-1,7-1,8-1,10-1,22-1,31-6,9-4,2-4,6-11s19-4,27-4c21,0,42-1,63-1,13,0,12,8,23,14,5,2,9,1,11,6,2,6-2,10-2,16-2,13,11,14,21,12,4,0,9-2,13-2,7,1,6,4,12,8,9,6,25,7,35,7,5,0,10,0,14-3,6-4,2-8,5-12h0c4-3,26-3,23-10,8-1,27-6,26-18,17-4,2-15,8-21,5-5,24-4,30-6,10-2,62-15,53-32-4-6-24-7-30-8-15-2-30-3-45-6-24-4-48-10-72-15-120-23-247-35-369-19"/><path class="cls-1" d="M152.22,502.88c2.6.21,5.67.16,8.17,1,3,1.06,5.79,2.63,8.82,3.6,3.65,1.18,8,2.37,11.84,1.22,3-.91,5.95-2.13,9-3a27.65,27.65,0,0,1,15.23-.15c7.64,2.34,17.92,8,18.41,17.16a13.87,13.87,0,0,1-1.46,7.17c.68-.32,1.36-.63,2.08-.89,4-1.46,8.44-3,12.74-2.85a10.09,10.09,0,0,1,4.16,1.11,127.55,127.55,0,0,1-3.83-14.4c-1.59-5-2.93-10.33-5.53-14.67A115.31,115.31,0,0,0,219.42,481c-4.56-5.13-10.39-8.11-16.58-10.83-.55-.24-.13-1,.38-.9,13.88,2.48,24.46,11.06,31.85,22.87a101.47,101.47,0,0,1,6.45-38A99.08,99.08,0,0,1,250,437a117.89,117.89,0,0,0-12.67-5c-6.26-2.06-12.6-4.44-19.26-4.74-6.39-.29-13.67-.32-19.27,3.19a54.22,54.22,0,0,0-8.59,6.95c14-3.1,30-.89,40.29,9.24a.54.54,0,0,1-.65.84c-14.4-8.92-32.69-11.06-47.55-1.76-6.14,3.84-10.83,8.08-14.3,14.52a70.91,70.91,0,0,0-5.75,15.17c9.07.52,18.34,3.55,26.31,7.56,8.53,4.3,18,9.65,23.24,17.85.15.23-.21.51-.39.3-3.23-3.8-8.58-5.81-13.05-7.81s-8.71-4.66-13.32-6.43c-7.68-3-16.46-5.94-24.82-5.41A30.91,30.91,0,0,0,142.94,488c-3,2.44-5.88,4.67-7.93,8.08A79.2,79.2,0,0,0,131,504.2l.42-.09A79.24,79.24,0,0,1,152.22,502.88Z"/><path class="cls-1" d="M694.2,381.38c-9.43,8-15.2,19.24-21.91,29.45-4.81,7.32-11.34,12.74-17.08,19.24-4.1,4.63-12.13,12.56-11.84,19.88,8.28-6.91,17.24-13.08,23.72-21.83,8.06-10.88,13-23.54,21.08-34.44.12-.17.39,0,.28.17-6,10.2-9.71,21.65-14.89,32.25-5,10.27-12.48,17.75-21,25.2-7.86,6.87-19.78,16.45-18.95,28.21,0,.2,0,.4.06.59.7,2.39,1.42,4.92,2.36,7.26a60.24,60.24,0,0,0,4.22,6.56c.69,1,2,3,3.64,4.91.82.84,1.67,1.66,2.55,2.49a16.71,16.71,0,0,0,1.33,1.1,4.86,4.86,0,0,0,1.48.62c.44-1.23.9-2.44,1.39-3.65.55-19.51,7.25-39.77,19.91-54.56,7.38-8.63,15.39-16.88,25.3-22.62,1.29-.74,2.59-1.48,3.91-2.2l-.5,0c-8.5-1.15-11.15-9.27-8.52-16.82,3.29-9.46,9.67-19.54,18.26-25,4.63-3,10.51-5.77,16.17-5.14l1,.1a30.35,30.35,0,0,0-11.51-.77A40.75,40.75,0,0,0,694.2,381.38Z"/><path class="cls-1" d="M809.76,487.83c-1.81-12.76-5.36-25.12-7.24-37.85-7.15-2.58-13.81-6.43-20.45-10.2-11.5-6.53-24-9.41-36.88-11.78-8.45-1.55-18.19-5.65-24.76-11.25-.36-.31-.71-.63-1-1-3.83,1.34-6.74,4.37-10.25,6.36-4.31,2.45-8.59,4.86-12.65,7.72a114.27,114.27,0,0,0-22.26,21c-6.36,7.71-11.86,15.58-15.28,25-1.91,5.26-3.51,10.65-4.9,16.09A86.07,86.07,0,0,1,660.72,481a121.49,121.49,0,0,1,51.89-41.55c.69-.29,1.17.87.51,1.2-20.43,10-38,28.05-48.78,48-5.14,9.49-8.16,19.74-12.58,29.52l-.09.21a217.16,217.16,0,0,1,19.83-27.66c15.16-17.81,33.68-34.37,56.56-40.89a.54.54,0,0,1,.41,1c-21.61,14.57-40.77,31.09-55.89,52.51-15.44,21.87-27.09,45.76-40.63,68.77-8,13.51-16.9,26.39-26,39.16-8.07,11.33-15.54,23.1-25.14,33.25-14.11,14.92-37,35.32-58.92,24.23a.7.7,0,0,1,.35-1.3c6.46.48,12.71,1.75,19.12,0a58.2,58.2,0,0,0,17.55-8.5c11.35-7.89,20.86-18.17,29-29.31q5.42-7.43,10.55-15.1a182.47,182.47,0,0,1-24.57,17.27,176.4,176.4,0,0,1-45.22,19,275.35,275.35,0,0,1-68.77,9.41c3.36,2.26,6.56,4.6,9.54,6.56,13.84,9.12,28.39,17,45.17,18.52a.45.45,0,0,1,0,.9c-15.25.94-28.81-4.88-41.63-12.64-6.34-3.84-12.31-8.28-18.73-12-.87-.5-1.74-1-2.61-1.4q-10.62-.22-21.16-1.3c5.53,2.82,10.91,6.09,16.4,9.47,7.11,4.38,14.38,8.4,21.29,13.11,6.36,4.34,12.75,8.86,19.63,12.35,30.15,15.29,62.17-4.22,87-21.74a36.7,36.7,0,0,1,3.28-3.94C585,660.89,594.19,656,600,647.75c1.86-12.11,10.11-23.54,17.31-32.93A188,188,0,0,1,643,588.15c8.73-7.6,18.68-14.79,30.07-17.69,8.75-2.23,20-2.63,27.15,4a23.59,23.59,0,0,1,6.93,11.39c1.3,5.47,2.11,11.95,5.44,16.63,7.36,10.35,22.5,6.46,32.73,11.62a13.82,13.82,0,0,1,3.54,2.51q.15-1.71.25-3.41c.26-4.22,0-8.46,1.25-12.56,2.51-8.14,8.85-14.58,9.15-23.42s-2.87-16.75-10.5-21.82c-8-5.29-15.87-8.14-25.47-7.31-.48,0-.53-.67-.11-.81,8.56-2.87,19.48,1.69,26.78,6.07,3.71,2.22,7.84,4.27,10.52,7.77,2.51,3.28,3.71,7.4,4.4,11.42a29.77,29.77,0,0,1-.36,12.75c-1.39,4.94-4.22,8.62-6.74,13-4.56,7.89-2.68,17.14-6.5,25-.26,3.22-2.44,6.48-6.33,8.89-7.13,4.42-16.36,7.54-24.85,6.12l-.19.26c-4.25,5.53-9.64,10.37-14.52,15.34-4.69,4.77-9.36,9.72-14.42,14.11-2.69,2.33-5.71,4.81-7.54,7.91-2.93,5-.44,6.35,1.7,10.72a21.35,21.35,0,0,0,6.2,7.24c7.08-2.13,14.63-2.61,21.78-4.77a161.69,161.69,0,0,0,22.49-8.42c7.21-3.41,14.3-7.08,21.3-10.88,6.73-3.66,13.94-7.48,19.43-12.93,6.66-6.62,7.76-13.09,6.43-22.11-1.08-7.3-1.52-14.28-.07-21.58.47-2.35,1-4.7,1.71-7q-3.36,4.12-6.84,8.13A361.28,361.28,0,0,1,750.39,642c-10.6,9.85-22,21-35,27.56a.7.7,0,0,1-.84-1.1C724.2,656.89,737,647.64,747.79,637c17-16.7,32.63-35.58,43.87-56.68,8.25-15.48,15.15-31.88,17.95-49.29A144.49,144.49,0,0,0,809.76,487.83Z"/><path class="cls-1" d="M325.35,707.7c-13.36,7.1-29.81,6.09-44.36,4.46-5.22-.58-10.46-1-15.68-1.65l-.05.14a14.83,14.83,0,0,1-1.86,2.63,32,32,0,0,1-13.16,9.39,37.78,37.78,0,0,1-7.37,1.92l-.45.12c-8.33,2.11-17.63,2.17-24.46-3.77-5.89-5.13-10.68-13.9-7.41-21.82,2.37-5.75,5.68-11,5.88-17.36.21-6.63-1.93-10.95-5.45-16.28-.13-.19.17-.43.32-.25,2.17,2.63,5.52,5.68,6.36,9.14a37,37,0,0,1,1,12.54c-.93,8.8-7.6,15.87-2.31,24.76a21.6,21.6,0,0,0,7.35,7.42c-4-6.2,6.52-12.35,11.45-14.76,10.26-5,26.66-10.62,25.13-24.7-.78-7.19-3-14.22-4-21.4-.76-5.43-1.62-12.53.52-17.8,4.59-11.37,17.76-16.08,29-17.91a120.52,120.52,0,0,1,30.38-1.11l-3.26-.61c-9.9-1.77-20.06-4.46-30.2-3.68-9.39.72-19.76,3.55-25.91,11.21-6.55,8.15-7.37,18.31-8.11,28.36a.33.33,0,0,1-.66,0c-.75-10.36-.76-20.19,5.54-28.95a36,36,0,0,1,21.28-13.48c10.73-2.16,21.26-.64,31.89,1.36,2,.38,4.07.75,6.1,1.11-6.75-3.63-13.29-7.62-20-11.34-17.95-10-37.92-18.61-57.86-23.61-20.23-5.07-42.62-7.56-63.33-4.06A71.42,71.42,0,0,0,144,588.15a49.18,49.18,0,0,0-10.68,9c-2.77,3.3-4.84,7.09-7.4,10.54-.38.51-1.47.44-1.38-.37.92-8.33,7.22-14.59,13.56-19.53A70.26,70.26,0,0,1,163.92,575c20.29-5.09,43.09-4.33,63.5-.21,5.92,1.2,11.88,2.72,17.81,4.51a333.18,333.18,0,0,0-37.44-14.7c-16.66-5.21-34.1-8.76-51.63-8.08-8.34.32-17.77,1.21-25,5.77-6.3,4-9.17,9.71-11.81,16.42a.94.94,0,0,1-1.82-.5c3-15.21,15.14-21.84,29.65-23.95,17.94-2.61,37.12.43,54.42,5.32,18.51,5.24,36.21,13,53.62,21.11,9.08,4.23,18.37,8.65,27.19,13.77q4.1,2.14,8,4.43c1.66,1,3.29,2,4.92,3q-6.47-5.39-12.6-11.14L273.12,583c-7.3-5.89-14.19-12.12-20.94-18.64-7.89-7.63-15.92-20.3-28.56-17.42a.49.49,0,0,1-.26-.95c10.44-3.78,20.05,3.38,27.5,10.07q4.15,3.73,8.28,7.47A147.35,147.35,0,0,1,244.37,536a22.36,22.36,0,0,0-3.56-2.93c-4.2-2.73-7.54-1.68-12.08-.56A73.71,73.71,0,0,0,218,535.7c-.43.18-.83.32-1.21.44-4.27,3.23-9.79,5.46-14.38,7.53-10.51,4.74-23.42,9.34-34.64,4.21a16.46,16.46,0,0,1-8.91-19.56A29.1,29.1,0,0,0,134,535c-5.18,4.79-10.25,9.1-17.27,10.86-4,1-8.13,1.87-11.42.33l-.28.31a14.75,14.75,0,0,1-3.1,3.72c-9.44,12-16.64,28-17.37,42.73a94.86,94.86,0,0,0,4.32,32.49c2.89,9.47,6.2,20.57,13.12,28a185.2,185.2,0,0,0,48.85,36.88c11.43,6,25.76,13.13,29.8,26.29A41,41,0,0,0,188,713c5.55-3.52,10.58-8.76,11.73-15.5,1.26-7.4-5.31-12.26-10-16.87-7.93-7.81-16.53-17.37-16.45-29.28.06-9.52,5.69-16.75,14.6-19.86a.66.66,0,0,1,.51,1.2c-10.44,5.47-15.75,14.41-11.83,26.19,2.56,7.68,7.64,13.67,13.31,19.29,3.51,3.48,8.18,7,10.4,11.5C204.4,698,198.57,708.49,192,714a49.91,49.91,0,0,1-11,7,1.51,1.51,0,0,1-.89.41,73.21,73.21,0,0,1-13.66,4.37c-3.86.87-9.51,1.8-12.22,5-3.46,4.08,6.86,10.67,9.67,12.28,11,6.3,23.45,7.53,35.82,8.78a296.1,296.1,0,0,0,46.3,1.55c15.1-.83,30.24-2.33,43.75-9.62,11.34-6.12,23.22-13.37,32.59-22.34a14.75,14.75,0,0,1,.13-3.68,14.42,14.42,0,0,1,5.7-8.76A9.4,9.4,0,0,1,325.35,707.7Z"/><path class="cls-2" d="M285.26,402.48q1.51-.92,3-1.8c-7.65-.78-14.92-6.15-16.79-13.75-2.38-9.67,1.21-19.62,6.2-27.87,6.94-11.46,16.4-20.74,27.14-28.66,6.18-4.56,12.51-9,19-13.14s13.65-7.27,20-11.5c.27-.18.6.25.35.45-5.52,4.45-10.45,9.49-16.1,13.86-5.22,4-10.56,7.91-15.52,12.28-8.92,7.87-17.5,16.82-23.93,26.89-4.18,6.54-8.85,14.9-8.14,23s8.21,11.08,13.93,15.13a181.76,181.76,0,0,1,27.71-11.38,78.2,78.2,0,0,1,13.37-3.54c4.06-.54,8.18-.61,12.24-1.16.8-.11,3.27-1,3.95-.41,1.17,1.07-.22,2.09-1.17,2.53-4.75,2.24-9.79,2.77-14.79,4.09-5.43,1.43-10.82,3-16.14,4.82a158,158,0,0,0-30.24,13.64c-20.11,12-35.42,29.51-42.8,51.85-7.94,24-6.17,49.93,2.9,73.4,10,25.92,27.68,46.6,49.4,63.58,22.26,17.4,48.21,31,74.82,40.37,26.9,9.5,54.72,13.7,83.19,14.18,28.15.48,56.74-2.62,83.68-11.12,12.84-4.05,25.42-8.71,37.17-15.38,9.64-5.48,18.38-12.09,27.36-18.47A453,453,0,0,0,632.27,555q3.5-7.43,7.22-14.74c.94-3,1.9-6,2.76-9,1.8-6.27,2.6-12.68,4.17-19,.46-1.84,1-3.66,1.56-5.48-8-3.07-13.76-10.83-16.43-18.65-.35-1-.75-2.2-1.14-3.47-2.13-4.17-3.8-9.19-2.75-13.6a32,32,0,0,1,9.07-15.23c1.71-1.69,3.49-3.29,5.32-4.84-1.69-6.51,3.88-14.73,7.25-19.58.7-1,1.4-2,2.11-3l0-.05c-1.47-1.18-2.16-2.5-3.41-4.16a71.32,71.32,0,0,0-6.46-7.33c-3.48-3.48-6.8-7.14-10.45-10.46s-7.71-6.43-11.71-9.47a89.07,89.07,0,0,0-10.91-7.16c-1.32-.72-8.76-3.9-5-6.48,1.64-1.14,5.26-.23,7.05.29,1.05.3,6.87,4.18,7.19,4,5.82-4,13.23-7.43,13.23-15.51,0-7.88-3.95-15.64-8.18-22.08a134.71,134.71,0,0,0-25.18-28c-5.3-4.52-10.92-8.62-16.43-12.87-4.93-3.8-9.12-8.31-13.94-12.19-.25-.21.08-.63.35-.45,3.67,2.44,7.86,3.9,11.6,6.23,3.27,2,6.57,4,9.79,6.17,6.41,4.24,12.84,8.53,18.93,13.22,10.36,8,19.91,17.11,26.37,28.6,4.48,8,8.76,18.59,5.41,27.77a20.08,20.08,0,0,1-16.39,13l.18.13c5.11,3.8,10.33,7.52,14.84,12a168.82,168.82,0,0,1,11.51,12.51c1.83,2.26,4.1,4.63,5.22,7.35,4.72-6.55,9.36-13.08,13-20.39,6.44-13,14.63-26.82,28.89-32.36a49.63,49.63,0,0,1,19.75-3.45c-5-16-14.06-29.28-24.13-42.58C682.86,312.13,670,301.17,657,292.18c-13.51-9.33-28-17.1-42.64-24.49a121,121,0,0,0-27.24-10.38c-6.68-1.55-13.36-2.3-20.07-3.29-12.11,11.06-28.19,18-44.73,19.79a.33.33,0,0,1-.17-.61c6.33-2.92,12.57-6.05,18.85-9.08,5-2.4,10.44-5,14.64-8.64,9.6-8.33,18-19.32,21.47-31.67,7.68-27.37-5-52.84-27.74-68.35-.39-.27-.16-1,.34-.8a51.87,51.87,0,0,1,5.28,2.06c.57-1.15,5.41-8.73,3.56-9-2.61-.42-6.52,1.08-8.48,2.69-1.55,1.28-4.14-.35-2.94-2.27,6-9.58,13.12-20.41,24.28-24.46,2.84-1,6.75-1.62,8.58,1.51,2.45,4.18-1.51,9.39-3.68,12.72a.16.16,0,0,1-.28-.17c.75-1.65,5-13.2-1.54-11.32a18,18,0,0,0-3.71,1.51,36.29,36.29,0,0,0-8.07,5.75,64.69,64.69,0,0,0-6.82,7.89c2.93-1,5.92-.75,8.11,2.13,3.82,5-.12,12.08-5.12,15a57.79,57.79,0,0,1,20.78,19,1.71,1.71,0,0,1,.55-.14c7.33-.62,6.84-8.21,3.84-12.82-2.17-3.34-5.16-6.16-7.91-9a3.3,3.3,0,0,1,.66-5.14c6.3-3.4,10.11-13.78,9.38-20.58-.53-5-2.75-11.27-7.71-13.39-13.46-5.75-25,11.5-31.86,20.24-.36.46-1.14.07-1.12-.46,0-.73.09-1.45.18-2.17-.91-3.33-.23-7-1.26-10.35a49.88,49.88,0,0,0-4.65-10.79,73.07,73.07,0,0,0-12.29-15.88c-10.26-9.79-22.76-15.84-36.21-20-14.66-4.55-30.13-8.22-45.56-7.78a113.51,113.51,0,0,0-22.92,2.76c-3.81.9-7.87,1.65-11.84,2.63a136.94,136.94,0,0,0-27.73,15c-13.15,9.16-26.71,20.59-34.7,34.72a77.54,77.54,0,0,0-8.62,23.26,54,54,0,0,0-1.06,14c.22,3.15,1,6.28.75,9.41l.22.35c.37.62-.33,1.14-.9.9-6.79-2.94-14.73-7.33-22.26-7.62-5.86-.23-13.72.92-16.41,7-2,4.59-.82,11,1.6,15.25,3.08,5.38,10.54,11.91,17.13,11.89a3.3,3.3,0,0,1,3.15,4.14c-1,3.81-2.85,8.26-2.68,12.26.2,4.73,2.29,10.81,7.8,9.53,2.52-9.06,7.21-17.62,12.8-25.48-6.17-.3-14.38-5.8-13-12.37.79-3.84,3.46-5.41,6.63-5.82a43.68,43.68,0,0,0-15.52-4.84c-2.5-.21-7.15-.93-9.42.58-4.66,3.09,2.93,8.85,4.93,10.34a.16.16,0,0,1-.17.28c-3.7-2-8.45-4.27-9.23-8.83-.5-2.9,2.38-5.17,4.92-5.69,12.31-2.49,24.47,3.57,34.8,9.6,1.79,1,.6,4-1.42,3.37-1.72-.53-10.69.06-8.61,3.17s5.63,4.57,8.59,6.71l.06.06c1.61-2.11,3.27-4.16,5-6.15.41-.48,1.18.14.86.66-5.62,9.11-9.12,17.6-10.84,28.19-1.44,8.9-2.92,19.54-.51,28.37,6.22,22.82,36,29.77,56.25,32.49a.36.36,0,0,1,0,.71c-13.85.93-28.58-2.28-41.71-6.48-7.32-2.34-13.91-5.79-18.61-11.12-17,6-33.52,13.52-48.15,24.11-15.9,11.52-28.56,26.71-38.38,43.63-8.82,15.2-16.29,32-19.25,49.4-2.31,13.55-4,27.25-6.57,40.75a68.44,68.44,0,0,1,31.22,13.71A106.64,106.64,0,0,1,285.26,402.48Zm23.16-27.21c-3,3-10.33,6.5-14.54,4.46-5-2.42-1.92-7,1.46-9.22,4.39-2.84,9.18-4.3,14.42-3.15a.62.62,0,0,1,.46.69C313.95,368.91,309.87,373.84,308.42,375.28Zm295.06-11.38c1.89-5.24,15-3.23,13.75,2.73a.7.7,0,0,1-1.28.17c-.79-1.48-3.23-2.22-4.76-2.43-1.1-.16-4.56-.8-5.21.59-.77,1.66,4.31,3,5.27,3.26a8.2,8.2,0,0,0,4,.14,13.41,13.41,0,0,1,2.24-.71.37.37,0,0,1,.37.37c0,3.18-7.19,3-9.1,2.75C605.74,370.36,602.29,367.19,603.48,363.89ZM409.83,264.72a.91.91,0,0,1,1.23-1.23c3.9,2.17,7.86,4.46,11.89,6.38,3.75,1.78,7.84,2.59,11.87,3.59a66.92,66.92,0,0,0,24.07,1.65c9.25-1.11,18.35-3.64,25.34-10.13,7.9-7.33,12.14-16.15,17.65-25.16a.66.66,0,0,1,1.2.51c-2.85,20.29-23.33,39.76-42.92,44.2-9.61,2.18-20.08,1.95-29.36-1.59C422.3,279.71,413.81,273,409.83,264.72Zm22.73-51.66c8.79-7.71,25-5.56,35.61-4.16,1.23.16,1.83,2.2.33,2.42-6.58,1-13.07,2.45-19.64,3.45-5.32.81-10.53,2.09-15.77.28A1.2,1.2,0,0,1,432.56,213.06ZM461,77.86c3.18.23,5.87,3.55,7.81,5.81,2.85,3.34,3.45,6.87,4.08,10.81,13.56-4,29.26,1.43,41.57,7.67.81-1.81,1.51-3.67,2.32-5.49-3.4-2.48-6.89-4.84-10.51-7-4-2.39-8.27-3.81-12.54-5.62-8.77-3.73-17.17-4.71-26.44-6.36a.21.21,0,0,1,0-.4c19-3.12,38.27,6.14,53.4,16.76a2.29,2.29,0,0,1,.8,3c-1.08,2.39-2.95,6.5-2.62,9.23.23,1.93-2.15,3.58-3.9,3-14.13-5-27.93-12.55-43.46-8.75A2.67,2.67,0,0,1,468.13,98c-.06-4.27.69-8.55-2.12-12.19a28.54,28.54,0,0,0-5.6-5.94C459.63,79.29,459.8,77.77,461,77.86Zm56.13,44.42c-4.24-.68-7.77-4-12.09-5a22.23,22.23,0,0,0-12.34.63c-8.6,2.94-16,8.58-23.88,12.94a.62.62,0,0,1-.9-.69c3.49-10.45,12.38-19.15,23.74-20A32.74,32.74,0,0,1,506.17,113c3.94,1.58,9.79,4.26,11.74,8.23A.75.75,0,0,1,517.08,122.27ZM444.26,85.11c3-1,7.15,3.85,9.06,5.61,1.71,1.58,5.1,6.4,8,7.74-.71-2.05-1.21-4.23-2-6.19-1.38-3.51-3.79-6.29-5.31-9.64a1,1,0,0,1,1.16-1.51c3.59,1.1,6.29,5,8.14,8.14,2.09,3.5,4.16,7.78,3.59,11.93a2.27,2.27,0,0,1-2.19,1.67,9.27,9.27,0,0,1-3.63-.44.21.21,0,0,1,.09.32c-3.72,5.12-8.28,10.17-9.18,16.68a56.38,56.38,0,0,0-.55,10.75c.16,2.63.54,5-.32,7.54a.58.58,0,0,1-1,.14c-7-13.51-2.35-27.94,10.77-35.43a.22.22,0,0,1,.14,0c-3-1.06-4.73-3.65-7.36-6.22-2.86-2.79-5.61-5.68-9.34-7.24A2,2,0,0,1,444.26,85.11ZM349.64,131a2.22,2.22,0,0,1-.35-2.69c9.33-15.94,23-32.59,41.65-37.62a.21.21,0,0,1,.16.37c-3.59,2.49-7.49,4.5-11,7.1-4,3-7.1,6.4-10.56,9.92A96.73,96.73,0,0,0,354,128.89c1.49,1.32,2.89,2.73,4.39,4C367,122.11,379,110.5,393,108.56c-1.08-3.74-2.06-7.34-.79-11.34.89-2.81,1.85-7.1,4.63-8.63A1.07,1.07,0,0,1,398.29,90a27.29,27.29,0,0,0-2.72,8.1c-.85,4.3,1.43,7.68,3.09,11.44.63,1.44.25,3.52-1.58,3.88-15.86,3.09-25,15.48-36,25.94A3.11,3.11,0,0,1,356,138C355.17,135.47,351.58,132.64,349.64,131Zm59.71,9a.62.62,0,0,1-.43,1.05c-9-.67-18.31-2.93-27.32-1.74a22.06,22.06,0,0,0-12.25,5.4c-2.94,2.7-4.78,6.71-8,8.91a.74.74,0,0,1-1.11-.64c.1-4.61,4.59-9.91,7.76-13.08,3.34-3.34,7-6.42,11.51-8C390.22,128.05,401.7,131.83,409.36,140Zm-54.6,29.91a.29.29,0,0,1-.45-.35c2.65-5.59,9.52-9.16,14.48-12.33,5.47-3.51,12.62-7.06,19.21-7.28,6.88-.23,14.65,3,16.95,9.95,3.73-4.68,9.76-7.87,15.37-7.37.48,0,.79.74.27,1a20.14,20.14,0,0,0-7.7,6.19c-1.79,2.49-4.53,5.14-5.13,8.25-.94,4.88,2.48,6.14,6.35,6.64a21.86,21.86,0,0,1,.85-10.26,22.13,22.13,0,0,1,11.23-13c2.28-8.32,4.89-18.17.51-26.19-4-7.32-12.59-11.86-20.69-13.44a11.76,11.76,0,0,1-2.43,1.28,2.27,2.27,0,0,1-2.56-1c-3.4-5.34-2.4-18.42,2.47-22.76a1,1,0,0,1,1.75.73c0,3.66-1.09,7.17-.82,10.9.15,2.1.6,4.33.8,6.51,2.16-2.55,3.26-8.49,4.25-10.77,1.17-2.69,2.55-8,6-8.36,1.84-.22,2.42,2.23,1.39,3.36-3,3.32-4.83,7.69-6,12-.86,3-1.77,5.45-3.65,7.24,9.51-.16,20,4.35,24.13,13.35,3.91,8.6,3.46,18.51-1.85,26l.67-.2c6.06-1.58,14.62-2.44,20.71-.82a.87.87,0,0,1,0,1.66c-5.51,1.54-11.06,1.2-16.28,4-4.52,2.38-9.35,5.55-10.78,10.81-2.41,8.86.63,17.15,10.25,19.39a48.59,48.59,0,0,0,26.88-2c5.06-1.85,11.4-4.76,13.68-10,3.9-9-3.1-13.24-10.22-16.63a.33.33,0,0,1,.17-.61c6.3.21,13.91,4.46,13.89,11.64,0,.18,0,.35,0,.52,1.72-1.37,3.61-2.61,4.61-4.46,1.81-3.35,1.09-7-2.43-8.66-5.18-2.46-11.57-3.73-17.22-2.56-.49.1-.93-.51-.52-.89,4.75-4.42,12.94-5.28,19.22-2.77a14,14,0,0,1-.2-1.46c-.71-9.47,4.81-16.4,14.12-17.74A53.05,53.05,0,0,1,521,131.67c6,2.14,13.51,4,17.8,9.08a.29.29,0,0,1-.35.45c-10-5.38-22.5-7.07-33.71-6.63-7.9.31-18,2.19-17,12.46.4,3.77,2.74,6.9,4.42,10.21,1.51,3,3,6,4.57,8.91a.41.41,0,0,1-.46.6,13.62,13.62,0,0,1-6.68-5c-1.27,5.76-6.11,11-11.72,9.58-1.17,5.34-4.66,9.46-9.66,12.46-10.24,6.14-23.19,9.22-35.08,7.48-6-.88-11.5-2.54-15.41-7.52a16.75,16.75,0,0,1-2.12-3.62,12.93,12.93,0,0,1-11.8-4.1,11.79,11.79,0,0,1-4.23,4.8c-.33.21-.65-.13-.6-.46.92-5.83,3.5-16.08-1.47-20.73-5.25-4.91-12.3-3.46-18.51-1.65C370.67,160.44,361.54,164.27,354.76,169.9Zm38.29,43.38c-1.05,1.85-2,3.83-3.78,4.86a2,2,0,0,1-2.35-.3c-3.27-3.08-.26-8.09,2.38-10.43,2.85-2.53,6.82-4,10.41-5.16a.91.91,0,0,1,1,1.33,89.37,89.37,0,0,1-6,7.24l-.13.17c9,.53,16.91-1.62,25.1-6.11s16.94-9.17,26.45-10.49c20.52-2.86,41.25,4.86,61.55-.44l-1.4-.59c-2.46-1.07-5.09-1.73-7.61-2.66-.72-.27-.92-1.5,0-1.66a21.74,21.74,0,0,1,11.07.73c2.5,1,7.87,4.15,4.68,7.38a1.92,1.92,0,0,1-2.28.29c-1-.51-1.51-1.67-2.4-2.36a7,7,0,0,0-.93-.59.48.48,0,0,1-.12.12c-8.31,5.82-19.11,7.47-29.1,6.83-5.89-.38-11.75-.74-17.65-.93s-12.23-1.15-17.92.22-11.92,3-17.3,5.63c-4.48,2.18-8.75,4.86-13.45,6.57C407.53,215,398.8,216.51,393.05,213.28Z"/><path class="cls-2" d="M351.56,646c7.22,1.18,15.61,4.37,20.74,10a54.86,54.86,0,0,1,16.27-4.79,222.39,222.39,0,0,1-42.05-15.76q-5.5-2.74-10.87-5.78c-2.65-.63-5.31-1.17-8-1.63-12.36-2.16-24.39-3.2-36.83-.77-9.67,1.89-26.43,5.75-27.46,17.87-.9,10.54,2.2,20.7,2.3,31.2.09,9-2.28,16.81-10.09,22.11a78.81,78.81,0,0,1-8.87,4.92c5.55.58,11.14,1.68,16.64,2.1s11,.59,16.5.93c8.4.52,16.75,1.22,25.17,1.37,6.28.12,12.28-.87,18.38-1.85-6.36-7.05,1.23-16.48,7.89-20.23a.82.82,0,0,1,.83,1.42c-3.73,2.4-8.65,6-6.69,11.18,1.51,4,3.74,5.57,8.18,5.24,5.8-.43,11.53-3.57,16.4-6.84.2-1.46.45-2.92.78-4.37a37.33,37.33,0,0,1,2.78-8.13c-3.66,1.87-8.73,2.12-12.38,2-5.5-.18-12.15-.75-17-3.57-9.24-5.36-15.67-17.55-6.65-26.5C325.75,648,340.35,644.19,351.56,646Z"/><path class="cls-2" d="M106.67,527.19A28.88,28.88,0,0,0,104.9,537c.22,6.16,4.58,6,9.1,4.88,6.91-1.73,11.69-5.34,17.13-9.71,8.13-6.52,18.28-8.35,28.36-5.59a16.35,16.35,0,0,1,1.37-2.6c2.61-4,9.24-5.34,13.56-6.12a62.77,62.77,0,0,1,19.76-.33c.82.11,1.22,1.47.22,1.61-8.74,1.22-35.07,2-29.31,17.16,5.13,13.47,27.11,7,36.47,2.87,5.23-2.3,14.28-4.76,17.11-10.1,3.37-6.35,0-12.45-5.57-16.17-5-3.38-10.85-5.73-17-5.28-6.36.47-11.11,4.76-17.25,5.51-5.5.66-10.82-1.31-15.78-3.47-6.61-2.89-14.37-3-21.51-2.4C128.21,508.3,111.38,512.88,106.67,527.19Z"/><path class="cls-2" d="M78.89,558c9-1.08,18.13-6.69,24.71-12.89a9.53,9.53,0,0,1-2.18-2.7c-2.75-4.91-.47-13.67,1.68-18.39a31.67,31.67,0,0,1,10.1-12.31,49.16,49.16,0,0,0-13.63,5.59c-8.2,5-16.19,10.89-22.17,18.49-2.91,3.71-6.37,8.54-6.57,13.46C70.63,554.38,73.23,558.69,78.89,558Z"/><path class="cls-2" d="M299.95,371.68c-.59.37-5.31,3.68-4.59,4.25,2.41,1.94,7.52-.76,9.71-2a23,23,0,0,0,2.68-1.85c1.31-1,3.09-1.59,1.67-3.38C306.07,369.43,303,369.79,299.95,371.68Z"/><path class="cls-2" d="M681,679.68a20.49,20.49,0,0,1,1.42-8.1c3.38-9.32,9.88-14.85,16.61-21.54,5.21-5.18,10.75-10.21,15.72-15.6,5.13-5.57,9.63-11.85,14.8-17.44a55.53,55.53,0,0,1-7.71-1.48c-8.73-2.51-14.3-8.72-15.58-17.78-1.33-9.46-1.85-20.14-12.83-23.32-20.24-5.87-40.9,9.88-54.12,23.43a254.43,254.43,0,0,0-21.85,25c-.61.81-1.18,1.64-1.76,2.47-2.18,6.48-4.94,12.9-7.64,19.11-3.33,7.66-8.21,13.21-14.8,18.24-6.92,5.28-15.79,11.15-18.65,19.85-2.27,6.9-2.09,15.61,4.63,20.11,5.41,3.62,11.95,4.13,17.88,6.51a51.26,51.26,0,0,0-12.13-13,.33.33,0,0,1,.33-.57c7.52,4,13.31,9.57,18.51,16.27a31.59,31.59,0,0,1,4,6.85c.36.68.71,1.38,1,2.12,2.06,4.81,3.21,12.47,8.24,15.26a19.38,19.38,0,0,0,9.7,2.07c3.41-.13,5.6-1.52,8-3.51a10.38,10.38,0,0,1,6.07-4.82,1.07,1.07,0,0,1,1,1.78c-4.36,4.31-6.09,9.48-1.79,14.58A18.65,18.65,0,0,0,651.68,753c4.71.86,11.41,1.49,15.77-1,4-2.27,5.81-5.95,7.22-10.18,3.16-9.44,5-20.51-3.32-27.69-2-1.74-5-4.64-8-4a29.15,29.15,0,0,0-7.15,2.69c-4.88,2.5-9.08,5.55-13.63,8.51a1.69,1.69,0,0,1-2.53-1.45c.46-7.27,7.61-16.22,15-17.51,8.27-1.43,15.69.13,21.43,6.6.12.14.23.28.35.42,2.95-2.71,7.33-4.79,9.61-5.87,7.77-3.68,14.34,1.12,18.37,7.41a28.61,28.61,0,0,1,5.1-3.73c-2-3.52-6.16-4.59-9.91-6.1a29.69,29.69,0,0,1-10.33-6.57C684.53,689.45,681.33,685.13,681,679.68Z"/><path class="cls-2" d="M91.61,557.86a26.33,26.33,0,0,1-12.72,5,13.6,13.6,0,0,1-5.33-.59c-.91,2.51-3,4.67-4,7.15-1.3,3.08-3,7.62-1.91,11,1.08,3.21,2.77,5.24,6.34,5.48a16.18,16.18,0,0,0,4.36-.69,88.58,88.58,0,0,1,11.84-25.29Q90.89,558.86,91.61,557.86Z"/><path class="cls-2" d="M733.57,721.56c8.16-4.79,3.83-23.22-4.13-20.2-2.43.92-4.49,3-6.57,5a14.53,14.53,0,0,1,1.65,1A23.85,23.85,0,0,1,733.57,721.56Z"/><path class="cls-2" d="M837.62,409a98.88,98.88,0,0,1-14.34-1.12c-11-1.5-21.66-4.62-32.68-5.87-.59-.07-.84-1-.15-1.13,7.13-1.34,14.08-.65,21.25.12a119.13,119.13,0,0,0,14.53.66,16.76,16.76,0,0,0,5.66-19.44c-2.64-7.65-9.45-10.9-17-12.39-4.28-.85-9.21-1.65-13.52-.5l-.13,0a20.79,20.79,0,0,1-2.53,1.36c-2.35,2-3.05,5.35.77,7.08,5.28,2.4,10.86,5.19,11,11.85.13,5.22-5.61,7.58-9.88,8.16a30,30,0,0,1-17.1-2.66c-12.49-5.86-27-22.22-41.41-12.66-1,.64-1.93-.75-1.19-1.55,6.67-7.2,14.19-7.76,21.79-5.69a21.73,21.73,0,0,1-1.93-9.39c.19-5.21,3.14-10.68,9.17-10.17s10.66,3.94,15.53,7c2.81,1.77,5.53,3.25,9,2.15a14.48,14.48,0,0,0,8.6-7.1c4.05-8.44-2.62-15.49-10.14-18.67a39,39,0,0,0-24.75-1.87c-8.57,2.33-17.18,8.42-21.84,16.06a38.87,38.87,0,0,0-4.9,12.89c-.74,3.94-1.15,7.22-3.28,10.69a.77.77,0,0,1-1,.33l-.14,0-.21-.1a.64.64,0,0,1-.3.06c-8.92-.52-17.76,1-24.67,7.27A55.41,55.41,0,0,0,698.73,402a33.77,33.77,0,0,0-2.9,10.59c-.42,4.06,3.64,4.64,6.81,4.33a45.85,45.85,0,0,0,9.19-2.13,22.29,22.29,0,0,1,5.08-1.53l.43-.11a11.68,11.68,0,0,1-1.68-7.21c.47-4.9,2.88-7.1,5.4-11.1.31-.5,1.16-.18,1,.41-1.53,4.81-4.28,9-2.26,14.24,1.51,3.94,5.76,6,9.37,7.73,8.38,4,16.7,4.89,25.63,6.8,10,2.14,19.75,5,28.87,9.74s18.31,9.48,28.63,11a75.27,75.27,0,0,0,15.26,1.09c2.15-.13,5.61-.2,7.2-2,2.3-2.54-2.17-5.1-4.11-5.8-4.1-1.5-8.36-2.77-12.51-4.1-4.52-1.45-10.12-2.34-14.2-4.83-5.31-3.25-10.59-6.56-15.9-9.8-2.18-1.33-4.13-2.24-5.61-3.94-1.29,1.82-3,3.64-5.33,3.39a1,1,0,0,1-.95-1.25c.48-2.56,2.9-5.07,4.52-7a25.64,25.64,0,0,1,6.08-5.61c.27-.17.64.18.45.45-1.65,2.35-2.12,5.34-3.42,7.89,2,1.07,4.39,1.54,6.34,2.56q3.17,1.66,6.33,3.34c9.23,1.44,18.24,4,27.72,4,5.76,0,11.73-.11,17.23-2,3.86-1.35,11.29-4.52,9.22-9.8C848.9,407,841.4,408.94,837.62,409Z"/><path class="cls-2" d="M694.22,710.89c-2.37-.46-4.67.72-6.81,1.62-2.36,1-4.79,1.9-7.06,3.07a49.9,49.9,0,0,1,2.58,12.08,50.88,50.88,0,0,1-.16,13.47c5.12.16,10.13,1,14.22-3.46,4.85-5.25,7.87-13.69,4.12-20.48C699.64,714.52,697.44,711.51,694.22,710.89Z"/><path class="cls-2" d="M705.46,736a10.66,10.66,0,0,0,4.29,2,13.33,13.33,0,0,0,7.65-1.19c4.32-2.11,10.14-6,10.13-11.47,0-4.75-5-15.88-11.35-14.12-2.74.77-5.85,3.85-8.9,4.38C709.69,722.11,708.76,729.87,705.46,736Z"/><path class="cls-2" d="M345.35,727c2.8-1.6,4.35-4.27,6.34-6.63a61.81,61.81,0,0,1-2.08-19.27,20.2,20.2,0,0,1-9.35,6.67,26.85,26.85,0,0,1-8.24,1.63c-1.33,1.89-3.17,3.28-4.22,5.39-1.8,3.62-.24,9.05,2.7,11.73C334.81,730.48,340.54,729.77,345.35,727Z"/><path class="cls-2" d="M434.09,664.4c-.57-.52-1.17-1-1.79-1.46l-4.11-2.1c-2.26-1.15-4.57-2.14-6.92-3.07q-2.83-.38-5.66-.82a.6.6,0,0,1-.38,0,75.06,75.06,0,0,0-23.58-1.28,84.74,84.74,0,0,0-13.54,2.09,13.57,13.57,0,0,1-4,.55,17.28,17.28,0,0,1,2.92,8.42c0,.66-1,.76-1.13.15-3-10.39-17.37-14.49-26.91-14.47-8.19,0-17.84,1.55-24.58,6.71-3.37,2.58-6.67,7.08-5.27,11.59a16.13,16.13,0,0,0,10,10.53,41,41,0,0,0,15.29,2.17c3.76-.27,7.22-1.86,10.86-2.31a34.8,34.8,0,0,1,11-10.89c.19-.12.43.18.25.32-15.73,12.4-15.93,34.1-9.73,51.5,1.68,4.71,3.9,9.87,8.22,12.75a42.12,42.12,0,0,0,13.06,5.5c7.53,1.87,13.37-.57,18.91-4.26,4.09-3.85,7.72-8.07,11.46-12.26,9.19-10.32,14.48-23.19,26-31.48.69-.5,1.49.59.9,1.16-5.92,5.71-11.35,12.5-14.75,20-1.52,3.36-3.05,6.57-4.8,9.66a31.22,31.22,0,0,1,16.56-3.7c6.62.43,12.63-.43,17.84-5a17.23,17.23,0,0,0,6.28-12.43c.28-10.38-5.66-19.09-11.45-27.18C442,670.68,437.91,667.89,434.09,664.4Z"/><path class="cls-2" d="M570.48,679.72l.07-.15-.13.12Z"/><path class="cls-2" d="M343.45,733.6a19,19,0,0,1-6.57,1.62c-1,2.93-2,5.77-.61,9,1.53,3.7,4.92,5.49,8.85,5.32,4.16-.18,9.82-1.71,11.91-5.81,1.31-2.57.91-5.48,1.94-8a38.83,38.83,0,0,1-6.35-12.19C350.62,727.78,347.87,731.67,343.45,733.6Z"/><path class="cls-3" d="M259.54,546.7c-6.62-8.62-7.67-22.29-7.07-32.78.78-13.59.88-27.27,4.39-40.5,6.79-25.55,20.08-47.45,44-59.87,11.28-5.84,23.7-9.27,35.78-13,14.44-4.49,28.48-9.18,43.41-11.9,31.78-5.77,64.38-8.79,96.65-6.8l2,.14a.71.71,0,0,0,.19-1.4c-15.58-3-31.2-2.54-47-2.4s-31.64.9-47.37,1.83c-27.77,1.64-56.6,6.88-82.29,17.75-11.9,5-22.9,11.75-32,21s-15.79,20.88-20.75,32.81a103.93,103.93,0,0,0-8.24,38c-.27,12.9,2.62,26.26,5.77,38.7,1.79,7.09,5.18,15.23,11.24,19.66.73.54,1.83-.54,1.27-1.27Z"/><path class="cls-3" d="M332.38,314.89c-9.82,4.82-18.51,11.76-26.7,18.95-8.43,7.39-16.54,15.09-21.8,25.15-4.33,8.28-9.18,19.57-5.61,28.88a18.31,18.31,0,0,0,9.93,10c2.33,1,4.63,1.78,7.19,1.33,1.76-.31,3.83-1.77,5.59-1.55a2.06,2.06,0,0,0,2.08-2.08c-.71-5.78-8.32-7-12-10.15-5.57-4.7,1.71-19,3.9-24.07,7.78-18.16,21.85-34.21,38-45.42a.6.6,0,0,0-.61-1Z"/><path class="cls-3" d="M336,262.94c-7.65-1.58-14.12,1.93-20.87,5.13-8.4,4-17.29,7.09-25.31,11.82-15.1,8.91-27.1,22.52-37.12,36.69-10.33,14.61-17.1,31-22.15,48-2.66,9-5.39,18.16-7.06,27.37-1.48,8.23-4.18,19.27-1.54,27.39a.74.74,0,0,0,1.42,0c1.37-3.91,1.31-8.19,1.87-12.27A95.17,95.17,0,0,1,227.75,395a128.83,128.83,0,0,1,9.61-25.61c4-7.75,8.57-15.27,12.75-22.94,3.83-7,8-13.82,12.37-20.52,8.41-12.79,18.9-23.83,30-34.27A127.07,127.07,0,0,1,314,275.47c6.82-4.09,14-9.57,22-10.73.92-.13.86-1.61,0-1.79Z"/><path class="cls-3" d="M348.59,190.8c-5.28,8.89-11.26,17.09-13.53,27.41s-1,20.62,2.8,30.52c3.76,9.67,9.74,17.34,19.49,21.41s19.79,10.61,30.55,10.14c.66,0,.85-1,.16-1.18a45,45,0,0,1-12.9-5.21c-4.46-2.59-9.63-4.44-13.68-7.66-3.62-2.88-5.62-7.57-8.21-11.3a55.71,55.71,0,0,1-6.44-12.13,66.71,66.71,0,0,1-3.68-26.94,43.47,43.47,0,0,1,2.93-13.92c1.43-3.51,3.19-7.06,3.43-10.89a.5.5,0,0,0-.92-.25Z"/><path class="cls-3" d="M343.93,173.34c1-2.92.58-6.09.84-9.15a80.72,80.72,0,0,1,1.28-11.44,114.92,114.92,0,0,1,7-20.22,103.05,103.05,0,0,1,9.36-17.12c4.28-6.22,9.92-11.21,15.72-16,11.08-9.09,24.3-15.68,37.64-20.72,14.53-5.49,29.26-8.12,44.66-9.59a.33.33,0,0,0,0-.66c-15.37-.78-31.39.39-46,5.52a155.07,155.07,0,0,0-41,22.18c-12.17,9.06-21.89,19.86-28,33.81-5.81,13.15-12.58,30.17-4.3,43.73a1.57,1.57,0,0,0,2.85-.37Z"/><path class="cls-3" d="M354.72,132.18a10.64,10.64,0,0,1,4.21-3.18c2-1,3.55-4,4.93-5.62a169,169,0,0,1,12-12.36c8.44-8.33,17.36-13.7,27.92-18.83a.74.74,0,0,0-.37-1.38,56.14,56.14,0,0,0-16,3.44c-5.88,2.2-10.62,6.46-15.3,10.53-7.93,6.9-19.52,15.25-19,27a.88.88,0,0,0,1.63.44Z"/><path class="cls-3" d="M354,171.25c4.52-.45,8.5-1.87,12.86-3.09,4.68-1.31,9.63-2.16,14.4-3.1a39,39,0,0,1,12.33,0c1.41.18,2.83.36,4.25.52,1.23.14,2.94,2.21,4.05,3a1.08,1.08,0,0,0,1.6-.92c.33-3.54-1.89-7.54-4.66-9.65-4-3-7.89-3.45-12.8-3-12.34,1.12-22.25,8.57-32.36,15.08-.48.31-.35,1.24.32,1.17Z"/><path class="cls-3" d="M448.69,149.94c-4.75-1.45-10.76,1.28-15,3.23-6.07,2.8-10.16,6.89-12.3,13.29-3.68,11,6.9,24.56,18.72,21.13a.53.53,0,0,0,.12-.95c-5.29-3.94-9.91-13-8.55-19.86.75-3.84,4.22-7.8,7.23-10.09s7-3.33,10.05-5.75a.61.61,0,0,0-.27-1Z"/><path class="cls-3" d="M420.36,213.31a128.56,128.56,0,0,1,16.47-5.6c4.75-1.38,10.61-1.58,14.39-5.08a1.48,1.48,0,0,0,0-2.09c-4.7-4-11.18-1.79-16.37,0-6.25,2.13-11.24,6.51-15.69,11.24a1,1,0,0,0,1.19,1.55Z"/><path class="cls-3" d="M401.83,199.24c-3-6.51-12.5-.88-15.94,2.06-4.28,3.65-7.87,11.92-4,17.07a1.28,1.28,0,0,0,2,.25c3.26-3.71,6.1-7.66,9.9-10.92,2.17-1.85,9.95-4.42,8.08-8.47Z"/><path class="cls-3" d="M433.48,228.23c-8,4.5-15.84,7.83-21.92,15-4.58,5.38-4.63,13.91-1.75,20,5.45,11.63,21.95,23,35.26,19.3a.61.61,0,0,0,.14-1.1c-10.07-5.16-20.81-8.9-27.26-18.94-3.25-5.06-3.4-10.86-1.4-16.41,3.11-8.62,10.4-12,17.37-17.14a.44.44,0,0,0-.44-.76Z"/><path class="cls-3" d="M343.55,172.79c-10.15-8.72-29.05-13.09-40.78-5.34-4.62,3.05-6,8.48-5.86,13.72.12,5,1,13,6.61,14.77,1.2.39,1.93-1,1.48-1.93-2.09-4.52-3-7.8-2.74-12.85.27-5.32,2.18-8.84,7.31-10.76,5.81-2.18,12.45-1.87,18.43-.65a48.71,48.71,0,0,1,9.88,3.34c1.91.86,2.79,1.67,4.86,1.61a1.13,1.13,0,0,0,.79-1.91Z"/><path class="cls-3" d="M546.84,135.48c6.93-6.93,15.54-15.41,25.89-15.85,10-.43,10.64,11.28,15.16,17.07a.5.5,0,0,0,.77-.1c2.51-3.61.62-9.35-1.34-12.78-2.48-4.34-7-8-12.14-8.43-6.34-.52-12.27,3-17.23,6.57-4.42,3.22-10,7.89-11.39,13.36a.17.17,0,0,0,.27.16Z"/><path class="cls-3" d="M452.48,85c12-.72,24.23-1.22,36.08,1.18A73.56,73.56,0,0,1,506,92.26c4.46,2.18,8.62,5.13,13.22,7,.44.17.79-.48.45-.78a92.5,92.5,0,0,0-29.62-17.79,53.25,53.25,0,0,0-17.91-3.44,40.89,40.89,0,0,0-10.27,1.2c-3.31.75-6.55,3.27-9.68,4.56-1,.4-1,2.06.27,2Z"/><path class="cls-3" d="M528.09,135.14c-11.82-4.16-27.17-4.8-36.87,4.41-6,5.69-4.57,21.39,3.59,24.46.5.19.91-.36.81-.81-1.51-6.76-4.27-16.67,2.62-21.14,9-5.84,19.44-5.47,29.7-5.79a.58.58,0,0,0,.15-1.13Z"/><path class="cls-3" d="M464.93,152.13c3.71,1.36,7.55,1.91,11,3.85a12,12,0,0,1,4.21,3.94c1.24,1.89,1.13,4.21,2.2,6.18a2.37,2.37,0,0,0,4.3-.56c1.51-5-3-10.07-7-12.34a19.27,19.27,0,0,0-14.74-1.64.3.3,0,0,0,0,.58Z"/><path class="cls-3" d="M417.66,154.64c-2.72.58-4.43,2.4-6.2,4.44-1.92,2.22-4.82,5.09-5.67,7.94-1.13,3.8-1.5,12.3,4.73,11.65,1.36-.14,3.8-1,4.16-2.56s-.94-2.05-1.82-3.1c-1.52-1.82-.28-5.52.19-7.62.81-3.66,3.89-6.27,5.57-9.5a.86.86,0,0,0-1-1.25Z"/><path class="cls-3" d="M133.93,504.49c5.28-12.59,17.8-15.77,30.39-16.29a107.93,107.93,0,0,1,20.67.69c6.42,1,11.81,4.85,18,6a.52.52,0,0,0,.5-.87c-4.5-5.43-14.06-8.47-20.65-10.53A57.24,57.24,0,0,0,157.17,481c-7.47,1-14.17,3.47-19.16,9.18-2.76,3.16-7.6,10.2-5.52,14.52.33.7,1.21.37,1.45-.19Z"/><path class="cls-3" d="M163.67,475.68c3.81-3.24,5.63-7.87,8.81-11.65a44.92,44.92,0,0,1,14.68-10.95,76.26,76.26,0,0,1,8.5-3.49c3.27-1.15,6.11-3.05,9.48-4,6.71-1.86,13.64-1.49,20.47-1.88.45,0,.83-.64.41-1-4.59-3.74-12.22-2.12-17.79-2.55-7.18-.55-14.35-.15-21,2.79a42.69,42.69,0,0,0-16.08,13c-4.55,5.77-5.6,12.3-9.06,18.53a1,1,0,0,0,1.55,1.19Z"/><path class="cls-3" d="M188,442.29c3.83-1,6.63-3.46,9.88-5.59,4.87-3.2,11.37-4.27,17.08-4.48,11.44-.43,23.35,2,34.27,5.21.55.16,1.07-.62.59-1a53,53,0,0,0-33.16-11.81,36.88,36.88,0,0,0-17.77,4.19c-5.61,2.91-7.84,7.38-11.79,11.94a.94.94,0,0,0,.9,1.55Z"/><path class="cls-3" d="M110.4,542.66c-2.2-5.39.73-12.33,4.17-16.65,4.42-5.56,11.35-9.17,18-11.32s14-2.52,20.92-3.78a27.69,27.69,0,0,1,13,.5c3.12.85,5.87,1.9,9,1a.55.55,0,0,0,.13-1c-8.09-4.26-18.15-4.13-27-5.44-8.46-1.25-18,1.08-25.86,4.17A32.94,32.94,0,0,0,105,526.24c-1.49,3-2.68,7.49-1.63,10.83,1.12,3.56,2.77,4.6,5.54,6.73a1,1,0,0,0,1.49-1.14Z"/><path class="cls-3" d="M189.45,518.92c-4.32-.65-9.48,1-13.64,2.17-4,1.09-10.26,2.83-12.44,6.72-4.07,7.25.7,19.36,10.26,18a1.12,1.12,0,0,0,.78-1.38c-1.51-5.64-7.14-12.14-.8-16.9,4.47-3.36,13.5-2.28,16.31-7.41a.8.8,0,0,0-.47-1.16Z"/><path class="cls-3" d="M109.68,510.37c-3,0-5.51,1.61-8.29,2.66-3.45,1.29-6.81,3.14-10.11,4.77-6.49,3.2-11.17,8.73-14.74,14.86-3.2,5.5-5,11.09-3.8,17.45.92,4.76,4.4,8.92,9.61,7.75A2.38,2.38,0,0,0,84,554.92c-2.69-6.59-1-16.33,2.17-22.31,5-9.39,16.26-14.07,24.2-20.56.69-.57.1-1.68-.7-1.68Z"/><path class="cls-3" d="M78.81,557.5a5.47,5.47,0,0,0-.6-3.79c-.35-.74-1.21-1.22-1.5-2a9,9,0,0,1,0-3c.15-3.44,1.74-8.39.45-11.66a1.37,1.37,0,0,0-1.29-1c-4.86.17-7.14,7.64-7.42,11.52-.37,5.28,1.38,11.85,7.83,11.9a2.64,2.64,0,0,0,2.56-1.95Z"/><path class="cls-3" d="M77.3,561.59c-5.28-2.25-9.07,5.52-10.7,9.27C64.79,575,63.85,585.42,71,585.13a1.31,1.31,0,0,0,1.24-.94,4.65,4.65,0,0,0-.36-3.63,10.31,10.31,0,0,1-.37-7.61A20.35,20.35,0,0,1,77.48,563a.9.9,0,0,0-.18-1.42Z"/><path class="cls-3" d="M104.74,550.37c-5.65,5.64-11.41,12.51-14.25,20a97,97,0,0,0-5.61,25c-.84,8.57.72,15.88,4.13,23.73S95,635.76,99.58,643a.58.58,0,0,0,1-.44c-2-7.42-4.37-14.74-5.84-22.29-1.55-7.91-1.54-15.1-1.17-23.12A112.67,112.67,0,0,1,97.21,574c1.1-4.24,1.94-9,3.72-13,1.52-3.4,3.31-6.65,4.73-10.1.22-.53-.55-.89-.91-.53Z"/><path class="cls-3" d="M121.41,578.15c1.94-1.79,4-3.22,5.9-5.14,3.22-3.32,7.14-4.5,11.28-6.23,7.74-3.23,15.64-3.82,23.9-4.25a131.63,131.63,0,0,1,25.66.81c8.64,1.23,17,3.87,25.49,5.7.37.08.66-.48.27-.65a139.88,139.88,0,0,0-26.69-8.66c-4.19-.91-8.45-1.54-12.69-2.11-5.18-.7-10.24-2.06-15.49-2.22-8.85-.26-18.45,1.91-26,6.72-4.56,2.92-12.52,9.66-12.56,15.67a.52.52,0,0,0,.89.37Z"/><path class="cls-3" d="M127.57,609c5-6.94,11.68-11,19.17-14.78a142.2,142.2,0,0,1,25-10.08c9.41-2.7,18.79-5.6,28.63-6.05,10.25-.47,20.34,2,30.56,2.38a.38.38,0,0,0,.1-.75c-10.57-3.17-21.63-4.65-32.59-5.8a57.3,57.3,0,0,0-15.21,0c-5.09.82-10.08,2.52-15,3.94-17.19,4.94-34,13.57-41.06,31-.11.28.3.4.45.19Z"/><path class="cls-3" d="M325.52,677.24c-2.4-4-1.93-9.37,1.91-12.32,3.22-2.48,9-3.33,12.86-4.41,4.54-1.27,9-2.93,13.57-4,5-1.19,9.9-.89,15-.75a.8.8,0,0,0,.4-1.48c-5.15-3.19-12-2.68-17.79-2.62a62.78,62.78,0,0,0-22,4.15c-4.93,1.85-9.88,5.41-11.58,10.63-.89,2.74-1.36,5.94.19,8.57s3.68,3,6.4,3.69a1,1,0,0,0,1.11-1.45Z"/><path class="cls-3" d="M331.26,685.84a17.46,17.46,0,0,0-9.27,13c-.27,2.53,3.18,6.63,5.3,7.69A8.38,8.38,0,0,0,335,707a2.33,2.33,0,0,0,.83-3.17c-1.55-2.88-4.13-4.54-6-7.11-2.43-3.42.89-7.28,2.09-10.38.16-.42-.36-.68-.68-.53Z"/><path class="cls-3" d="M328.38,710.93c-4.95,3.94-3.77,10.33-1.49,15.39,1.83,4.06,6.9,7,10.65,3.42a1.47,1.47,0,0,0,.23-1.76c-1-2.08-3-3.55-4.18-5.58-1.88-3.33-1.78-7.36-3-10.9a1.33,1.33,0,0,0-2.19-.58Z"/><path class="cls-3" d="M334.85,740.82c.15,1.53-.31,3,0,4.59a11.48,11.48,0,0,0,3.14,5.72c2.64,2.93,8.63,5.19,11.73,1.68,3.42-3.89-2.31-7.38-5-9.18-2.93-1.94-4.89-4.16-8.66-4a1.16,1.16,0,0,0-1.15,1.15Z"/><path class="cls-3" d="M377.32,663.65c4.24.14,8.79-1.23,13-1.85,5.21-.76,10.46-.56,15.69-1.08,10.33-1,20.13,1.49,30,4a.36.36,0,0,0,.27-.65c-8.26-5.88-19.89-7-29.54-9.09-5.76-1.28-11.64-.85-17.5-.77-4.73.07-10.74.46-14.29,3.87-2.12,2-.46,5.49,2.31,5.58Z"/><path class="cls-3" d="M367.36,670.56c-4.45,4-9.21,7.3-12.36,12.47-3.56,5.84-3.58,14.51-3.93,21.14-.59,11.43,4.41,24.81,12.12,33,.32.34,1,0,.82-.48-1.68-4.19-3.44-8.14-4.42-12.59-1.35-6.14.58-12.12,1.19-18.17.64-6.46.9-12.95,1.42-19.41.26-3.25.66-6.12,2.38-9A29.38,29.38,0,0,0,368,671a.41.41,0,0,0-.69-.4Z"/><path class="cls-3" d="M265.2,643.09c.32-3,5.6-2.84,7.62-3.34,3.71-.93,7.43-1.88,11.16-2.72,8.81-2,17.83-2.06,26.72-3.51,10.19-1.66,19-.85,28.86,2,8.92,2.53,18,4.92,27.08,6.91.75.16,1.32-1,.55-1.3-19.54-8.69-39.67-16.45-61.39-16.81-10.16-.17-21.14,1.51-30.18,6.24-4.66,2.44-11.43,6.55-10.85,12.58a.22.22,0,0,0,.44,0Z"/><path class="cls-3" d="M248.78,647.55c2.83-4.54,5-9.23,8.81-13.08,4.05-4.08,10.31-6.6,15.55-8.65a89.7,89.7,0,0,1,32.19-6.48.47.47,0,0,0,.12-.91c-11.89-3.74-24.91-2.44-36.25,2.38-5.19,2.21-10.54,5.28-14,9.87-3.72,5-5.45,10.65-7.49,16.42-.22.63.72,1,1,.44Z"/><path class="cls-3" d="M187.16,632.44c-3.19,2.89-6.53,5.32-8.54,9.26-1.89,3.69-2,7.39-2.23,11.41-.57,8.91,4.08,16.12,10.28,22.15a.38.38,0,0,0,.6-.46c-3.8-6.67-7.63-12-6.78-20,.82-7.73,1.6-15.84,6.83-22.16a.11.11,0,0,0-.15-.15Z"/><path class="cls-3" d="M217.43,686.79c-.63,8.1-5.6,17.16-2.15,25,1.41,3.22,4.7,5.1,7.2,7.41a6.3,6.3,0,0,0,7.26,1.18,1.23,1.23,0,0,0,.72-1.77,25.68,25.68,0,0,0-2.71-4.69c-1.86-2.24-4.93-3.11-6.61-5.56-1.79-2.61-1.63-6.91-2.29-9.94-.84-3.84-.83-7.75-1-11.65a.19.19,0,0,0-.38,0Z"/><path class="cls-3" d="M704.93,423.42c-13,5.77-23.88,17.47-33.34,27.8-8.32,9.08-16.67,20.87-15.35,33.8.07.72,1.17,1,1.34.18,2.73-12.53,10.38-22,18.58-31.55,4.31-5,8-10.46,12.41-15.36a84.35,84.35,0,0,1,16.83-14.06.47.47,0,0,0-.47-.8Z"/><path class="cls-3" d="M671.43,427.16c-2,1.81-2.91,4.2-4,6.64-1.84,4.1-6.81,7.74-9.74,11.14-5,5.78-11.65,9.56-16.71,15.27-8.94,10.11-13.41,25.18-4.36,36.63.59.75,1.8-.06,1.55-.9-3.83-12.87,2.29-26.17,11.13-35.5a157.41,157.41,0,0,0,11.95-14.83c2-2.74,4.25-5.32,6.21-8.12,2.13-3,2-7,4.44-9.85a.33.33,0,0,0-.46-.46Z"/><path class="cls-3" d="M734.78,377.87c7-1.56,8.11-9.13,11.35-14.58a48.43,48.43,0,0,1,18.7-18.11A37.14,37.14,0,0,1,788.37,341c9.37,1.65,15.32,8.05,21.59,14.61a.88.88,0,0,0,1.49-.62c-.33-8.43-7.82-16.07-15.11-19.36-8.38-3.79-18-3.18-26.45.12a56.37,56.37,0,0,0-22.41,15.47,39,39,0,0,0-6.92,11.29c-1.8,4.54-1.37,11.92-6.17,14.36-.54.28-.15,1.07.4.95Z"/><path class="cls-3" d="M804,379.51c-1.28-1.65-2.19-1.81-.67-3.26.83-.79,2.85-.75,3.89-.83,2.9-.2,5.84,0,8.74,0,9.18,0,17.49,6.9,17.47,16.22a.85.85,0,0,0,1.58.43,16.3,16.3,0,0,0-2.1-18.61c-5.09-5.82-12-7.34-19.38-7.67-5.3-.24-14.31-.58-17.47,4.83-2.73,4.67,2.07,13.61,7.78,10.07a.78.78,0,0,0,.15-1.2Z"/><path class="cls-3" d="M727.39,396.72c9.51-5.75,18.82-8.89,30-9,6.14,0,12.24,1.58,18.18,3,7.08,1.66,14.26,2.91,21.41,4.21.64.12,1.1-.76.46-1.1-6.85-3.6-14.23-6.08-20.78-10.26-6.2-4-13.66-5-20.86-4.93-12.94.21-22.16,6.77-29.38,17.14-.4.58.37,1.28.93.93Z"/><path class="cls-3" d="M650.78,430c13.49-5.53,23.08-14.16,30.63-26.56,4.1-6.73,8.05-13.92,14.4-18.82,7-5.37,15.86-8.4,23.86-11.81.4-.17.2-.84-.22-.82-8,.49-15.65,1.58-23,5-6.89,3.2-11.71,9.42-15.77,15.63-4.3,6.57-7.84,13.5-12.33,20-4.62,6.65-11.24,12.25-17.93,16.68-.37.24-.13.93.32.75Z"/><path class="cls-3" d="M642.62,720.91c6.46-2.83,13.61-2.37,20.42-2.76,2.95-.17,6.47,0,8.9,1.89,2.18,1.71,3.93,4,6.28,5.49a1,1,0,0,0,1.38-.36c4.23-7.94-5-13.87-11.8-14.45-4.77-.4-8.73.78-13.16,2.34-5.07,1.78-9,3.06-12.55,7.17a.44.44,0,0,0,.53.69Z"/><path class="cls-3" d="M678.71,720c2,1.23,4.17.85,6.34.41a53.11,53.11,0,0,1,10.44-.92c2.3,0,9.93,3.14,9.93-1.36,0-11.38-24.55-8-27.6-.31a1.92,1.92,0,0,0,.88,2.17Z"/><path class="cls-3" d="M704.12,720.22c1.12,1.19,3.34,1.23,4.85.76,2.41-.75,4.25-2,6.77-2.52,2.35-.47,10.24-.09,8.4-4.5-2.35-5.65-8.79-4.07-13.53-2.53a9.65,9.65,0,0,0-5.39,4.68c-.5.93-2.09,3.05-1.1,4.11Z"/><path class="cls-3" d="M722.42,710.62c2.84-.7,5.21-2.87,7.66-4.37,3-1.83,5.71-1.42,8.93-1.82a1.19,1.19,0,0,0,1.08-.82c.83-2.14-.88-4.11-2.59-5.19-2.38-1.51-5.78-.55-8.11.52-3.63,1.66-10.4,6.38-8.08,11.24a1,1,0,0,0,1.11.45Z"/><path class="cls-3" d="M616.75,621.52c-1.79,4.7-5.05,8.3-6.6,13.2-1.82,5.79-3.29,12.23-7.11,17.1-5.62,7.17-14.34,11.19-20,18.27-5,6.24-9.82,13.22-11,21.28-.92,6.47,2.31,14.85,9.46,16.23a.58.58,0,0,0,.65-.84c-1.91-3.34-4-5.72-4.14-9.78a21.07,21.07,0,0,1,2.81-11.41c2-3.57,4.66-5.76,8.09-7.8a83.27,83.27,0,0,0,10.42-7.45c6.67-5.49,10.95-11.81,12.76-20.3A136.91,136.91,0,0,0,614,635.25c.49-4.84,3.6-8.69,3.88-13.57,0-.69-.91-.72-1.13-.15Z"/><path class="cls-3" d="M342.51,182.25a17,17,0,0,0-5.53,1.82,11,11,0,0,0-5.16,5.47c-1.05,2.54,1,4.72,3.16,5.52a9.51,9.51,0,0,0,5.8-.12,1.33,1.33,0,0,0,.78-1.93,10.25,10.25,0,0,0-3-3q1.11,1.21.08,0c-.54-.46.17.82.2,1.2q-.22-2-.1.25c-.14.58-.06.11.13-.13,1.64-2.08,7.11-4.12,5.66-7.54a2.13,2.13,0,0,0-2-1.53Z"/><path class="cls-3" d="M413.62,110.18c2.9,3.12,6.53,5.43,9.59,8.38a31.28,31.28,0,0,1,6.9,11.73c1.52,4.86-.33,9.78-.92,14.59a74,74,0,0,1-1.1,8.16c-.5,2.13-1.39,3.88-1.49,6.1a1,1,0,0,0,1.25.95c4.62-1.52,7.67-7.31,9.76-11.39,3-5.94,3.51-13,2.38-19.53-2-11.56-15.71-17.69-26-19.62a.39.39,0,0,0-.37.64Z"/></g><g id="linework"><path class="cls-4" d="M347.47,189.82c-14.39,17-26.8,38.26-20.66,61.33,3.3,12.41,13.09,18.9,24.7,22.61,13.13,4.2,27.86,7.41,41.71,6.48a.36.36,0,0,0,0-.71c-20.29-2.72-50-9.67-56.25-32.49-2.41-8.83-.93-19.47.51-28.37,1.72-10.6,5.22-19.08,10.84-28.19.32-.52-.45-1.14-.86-.66Z"/><path class="cls-4" d="M546.58,136.84c6.82-8.74,18.39-26,31.86-20.24,5,2.12,7.18,8.43,7.71,13.39.73,6.81-3.08,17.19-9.38,20.58a3.3,3.3,0,0,0-.66,5.14c2.75,2.86,5.73,5.68,7.91,9,3,4.6,3.49,12.19-3.84,12.82-2,.17-2,3.14,0,3.12,5.46,0,11.52-5.11,11.78-10.8.35-7.48-5.21-16-11.89-19.29l1.5,3.69c.8-2.07,2.93-4.1,4.19-5.92a34.6,34.6,0,0,0,3.41-6.3,38.25,38.25,0,0,0,3-12.05c.61-7.68-2.6-15.07-9.25-19.11-7.38-4.48-17.08-1.61-23.83,2.6-8.15,5.09-13.31,13.31-13.67,22.89,0,.53.76.92,1.12.46Z"/><path class="cls-4" d="M557,159.52c5.78-2,11.25-10.19,7-15.82-4.7-6.17-13.08-.25-16.58,4.06l2.94,2.27a76.66,76.66,0,0,1,12.35-16.34,36.29,36.29,0,0,1,8.07-5.75,18,18,0,0,1,3.71-1.51c6.56-1.88,2.29,9.67,1.54,11.32a.16.16,0,0,0,.28.17c2.17-3.34,6.13-8.54,3.68-12.72-1.83-3.13-5.74-2.54-8.58-1.51-11.16,4.06-18.28,14.89-24.28,24.46-1.2,1.92,1.38,3.54,2.94,2.27,2-1.62,5.87-3.12,8.48-2.69,1.89.3-3.2,8.21-3.6,9.1-.59,1.33.39,3.3,2.08,2.71Z"/><path class="cls-4" d="M339.76,171.52c-5.13-8.63-13.37-12.55-23.15-13.6C308,157,298.33,160.38,294,168.19c-3.56,6.41-1.91,13.87,1.55,19.87a30.31,30.31,0,0,0,7.25,8.3,53.84,53.84,0,0,0,5.89,4.17c2.45,1.48,5.76,2.15,7.94,4l-.51-4c-4.34,6.19-5,16.21-1.19,22.66,2.89,4.86,10.79,6.33,15.51,3.77,1.8-1,.22-3.5-1.57-2.69-6.75,3-9.23-3.78-9.45-9-.17-4,1.64-8.45,2.68-12.26a3.3,3.3,0,0,0-3.15-4.14c-6.58,0-14-6.52-17.13-11.89-2.42-4.23-3.62-10.66-1.6-15.25,2.69-6.1,10.56-7.25,16.41-7,7.52.3,15.46,4.68,22.26,7.62.56.24,1.26-.28.9-.9Z"/><path class="cls-4" d="M342.46,195.92c-3-2.14-6.47-3.56-8.59-6.71s6.89-3.69,8.61-3.17c2,.62,3.21-2.33,1.42-3.37-10.33-6-22.49-12.09-34.8-9.6-2.54.51-5.42,2.79-4.92,5.69.78,4.56,5.53,6.82,9.23,8.83a.16.16,0,0,0,.17-.28c-2-1.5-9.59-7.25-4.93-10.34,2.27-1.51,6.92-.79,9.42-.58,8.59.72,16.68,5.23,24,9.48l1.42-3.37c-5.6-1.72-14.9-3.22-16.5,4.55-1.5,7.32,8.87,13.32,15.06,12.26,1.75-.3,1.58-2.55.44-3.37Z"/><path class="cls-4" d="M454,82.62c1.52,3.35,3.93,6.14,5.31,9.64,1.2,3.06,1.76,6.64,3.43,9.46l.81-3.1c-3.11,1.49-8-5.88-10.24-7.9-1.91-1.76-6.05-6.62-9.06-5.61a2,2,0,0,0,0,3.8c3.73,1.55,6.48,4.44,9.34,7.24,3.58,3.49,5.57,7,11.1,6.7a2.27,2.27,0,0,0,2.19-1.67c.57-4.15-1.5-8.43-3.59-11.93-1.85-3.09-4.54-7-8.14-8.14A1,1,0,0,0,454,82.62Z"/><path class="cls-4" d="M460.41,79.84a28.54,28.54,0,0,1,5.6,5.94c2.8,3.65,2.05,7.92,2.12,12.19a2.67,2.67,0,0,0,3.34,2.54c15.53-3.79,29.33,3.78,43.46,8.75,1.75.61,4.12-1,3.9-3-.32-2.73,1.54-6.84,2.62-9.23a2.29,2.29,0,0,0-.8-3c-15.13-10.62-34.37-19.87-53.4-16.76a.21.21,0,0,0,0,.4c9.27,1.65,17.67,2.63,26.44,6.36,4.27,1.81,8.53,3.23,12.54,5.62a141.83,141.83,0,0,1,12.18,8.22l-.8-3c-1.7,3.22-2.69,6.78-4.52,9.92l4.21-1.1c-13.66-7.35-32.54-14.59-47.87-7.95l3.88,1.58c-.95-5.1-1-9.5-4.55-13.61-1.93-2.26-4.63-5.57-7.81-5.81-1.15-.08-1.32,1.43-.54,2Z"/><path class="cls-4" d="M403.48,89.14c-4.86,4.34-5.87,17.41-2.47,22.76a2.27,2.27,0,0,0,2.56,1c4.55-1.78,5.93-4.89,7.2-9.42,1.21-4.32,3-8.69,6-12,1-1.13.45-3.58-1.39-3.36-3.43.41-4.8,5.67-6,8.36-1.29,3-2.74,12.1-6.49,12l2.27,2.27c.34-3.2-.6-6.75-.84-10-.27-3.73.85-7.24.82-10.9a1,1,0,0,0-1.75-.73Z"/><path class="cls-4" d="M396.83,88.58c-2.78,1.53-3.74,5.82-4.63,8.63-1.61,5.08.41,9.52,1.64,14.4l2.54-3.34c-16.65.38-30.81,15.05-40.08,27.39l4.21-1.1c-3-2.09-5.3-4.88-8.18-7.1l.8,3A98.06,98.06,0,0,1,369.54,108c3.46-3.51,6.57-7,10.56-9.92,3.51-2.6,7.42-4.61,11-7.1a.21.21,0,0,0-.16-.37c-18.65,5-32.32,21.68-41.65,37.62a2.22,2.22,0,0,0,.35,2.69c1.94,1.69,5.53,4.51,6.35,7.08a3.11,3.11,0,0,0,5.14,1.36c10.93-10.46,20.09-22.85,36-25.94,1.83-.36,2.21-2.44,1.58-3.88-1.66-3.76-3.94-7.14-3.09-11.44a27.29,27.29,0,0,1,2.72-8.1,1.07,1.07,0,0,0-1.46-1.46Z"/><path class="cls-4" d="M460.83,102.38c-13.12,7.5-17.73,21.93-10.77,35.43a.58.58,0,0,0,1-.14c.86-2.53.48-4.91.32-7.54A56.38,56.38,0,0,1,452,119.4c.9-6.51,5.46-11.56,9.18-16.68.15-.21-.14-.45-.34-.34Z"/><path class="cls-4" d="M468.77,130.84c7.9-4.36,15.28-10,23.88-12.94a22.23,22.23,0,0,1,12.34-.63c4.32,1,7.86,4.32,12.09,5a.75.75,0,0,0,.83-1.08c-2-4-7.79-6.64-11.74-8.23a32.74,32.74,0,0,0-14.57-2.77c-11.36.8-20.25,9.51-23.74,20a.62.62,0,0,0,.9.69Z"/><path class="cls-4" d="M409.36,140c-7.65-8.16-19.13-11.93-29.88-8.12-4.51,1.6-8.17,4.68-11.51,8-3.17,3.17-7.66,8.46-7.76,13.08a.74.74,0,0,0,1.11.64c3.26-2.2,5.1-6.2,8-8.91a22.06,22.06,0,0,1,12.25-5.4c9-1.19,18.35,1.07,27.32,1.74a.62.62,0,0,0,.43-1.05Z"/><path class="cls-4" d="M450.79,149.06c-6.09-1.62-14.65-.76-20.71.82-7.48,1.95-12.59,7.3-15.12,14.45-2.15,6.06-1.16,14.32,2.83,19.42s9.4,6.64,15.41,7.52c11.9,1.75,24.84-1.34,35.08-7.48,6.2-3.72,10.08-9.16,10.1-16.5,0-7.18-7.59-11.43-13.89-11.64a.33.33,0,0,0-.17.61c7.12,3.39,14.12,7.65,10.22,16.63-2.28,5.24-8.62,8.16-13.68,10a48.59,48.59,0,0,1-26.88,2c-9.62-2.24-12.66-10.53-10.25-19.39,1.43-5.26,6.27-8.43,10.78-10.81,5.22-2.75,10.76-2.42,16.28-4a.87.87,0,0,0,0-1.66Z"/><path class="cls-4" d="M476.07,170.63c9.69,5,18-10.86,11.72-18.18-5.75-6.66-18.53-7.19-25-1.2-.42.39,0,1,.52.89,5.65-1.17,12,.1,17.22,2.56,3.52,1.67,4.24,5.31,2.43,8.66-1.52,2.81-5.1,4.2-7,6.81a.33.33,0,0,0,.12.45Z"/><path class="cls-4" d="M421.48,175.52c-4.42-1.43-15.32.69-13.73-7.57.6-3.11,3.34-5.76,5.13-8.25a20.14,20.14,0,0,1,7.7-6.19c.52-.25.21-1-.27-1-9.1-.81-19.3,8.06-19,17.3.17,5,4.19,8.78,8.76,10.05,4,1.11,9.76.33,11.59-3.86a.33.33,0,0,0-.2-.48Z"/><path class="cls-4" d="M404.15,111.35c8.61,1.21,18.25,5.87,22.55,13.76,4.79,8.78,1.21,19.76-1.15,28.52a.29.29,0,0,0,.48.28c8.41-7.6,9.86-19.63,5.23-29.79-4.52-9.94-16.88-14.42-27.05-13.16-.21,0-.3.37-.05.4Z"/><path class="cls-4" d="M496.8,166.14c-1.57-2.94-3.06-5.93-4.57-8.91-1.68-3.31-4-6.44-4.42-10.21-1.08-10.26,9.07-12.14,17-12.46,11.21-.44,23.68,1.25,33.71,6.63a.29.29,0,0,0,.35-.45c-4.29-5.05-11.84-6.94-17.8-9.08a53.05,53.05,0,0,0-25.08-2.38c-9.31,1.33-14.83,8.26-14.12,17.74.35,4.67,2.86,7.76,5.42,11.43s4.75,6.93,9.09,8.28a.41.41,0,0,0,.46-.6Z"/><path class="cls-4" d="M399.64,180.83c6.12-3.83,7.07-13.11,5.68-19.6-1.7-7.93-10-11.54-17.32-11.29-6.59.22-13.74,3.77-19.21,7.28-5,3.18-11.83,6.74-14.48,12.33a.29.29,0,0,0,.45.35c6.78-5.62,15.91-9.46,24.3-11.91,6.21-1.81,13.26-3.27,18.51,1.65,5,4.66,2.38,14.9,1.47,20.73-.05.33.27.67.6.46Z"/><path class="cls-4" d="M546.56,135.45c6.31-13.78-2.55-29.27-11.26-39.6-9.83-11.66-22.86-18.5-37.07-23.35-16.51-5.64-33.36-7.67-50.76-7.08a114.56,114.56,0,0,0-23.72,3.46c-7.48,1.86-16,4.47-22.54,8.61a.25.25,0,0,0,.25.42c6.51-3,14.32-4.13,21.28-5.77a113.51,113.51,0,0,1,22.92-2.76c15.43-.43,30.91,3.23,45.56,7.78,13.45,4.18,25.95,10.23,36.21,20a73.07,73.07,0,0,1,12.29,15.88,49.88,49.88,0,0,1,4.65,10.79c1.15,3.78.15,7.89,1.65,11.53.08.2.41.32.53.07Z"/><path class="cls-4" d="M339.47,171.93c.46-3.39-.45-6.76-.68-10.17a54,54,0,0,1,1.06-14,77.54,77.54,0,0,1,8.62-23.26c8-14.13,21.55-25.56,34.7-34.72,26-18.15,58.24-27.93,89.92-20.8a.25.25,0,0,0,.13-.47c-31.14-11-68.08-1.42-94.64,16.55-14.49,9.81-28.27,21.88-36.65,37.44A67.79,67.79,0,0,0,334.18,147c-.85,7.66,0,18.63,4.76,25,.13.17.49.21.53-.07Z"/><path class="cls-4" d="M562.12,252l.07.2a1.87,1.87,0,0,0,1.31,1.31c7.9,1.3,15.74,2,23.59,3.84a121,121,0,0,1,27.24,10.38c14.63,7.39,29.13,15.16,42.64,24.49,13,9,25.9,19.95,35.47,32.59,10.6,14,20.08,28,24.89,45.1a.91.91,0,0,0,1.74,0c1.81-8.76-2.31-17.37-4.6-25.71-1.12-4.07-3.18-8.08-5-11.87-2-4.08-3.56-8.2-6.15-11.94-10-14.44-23.38-26.52-37.49-36.87C651.2,272.76,635,265.16,618,258.94a174.88,174.88,0,0,0-29.24-7.74c-4.72-.85-9.45-1.52-14.22-2a41.34,41.34,0,0,0-11,.63l2.12.86-.13-.17c-1.16-1.57-4.08-.71-3.37,1.42Z"/><path class="cls-4" d="M822.59,404.69c7.68-2.93,12.14-7,13.29-15.34a21.08,21.08,0,0,0-5.55-17.92c-5.56-5.81-14.64-7.64-22.27-8.5s-16.33.84-18.05,9.56a11.5,11.5,0,0,0,2.22,9.22c2.41,3,6.61,4.11,8.83,7.19.88,1.22,1.52-1.09.5-.71a12.77,12.77,0,0,1-4,.6c-3.86.17-7.24-1-10.75-2.55-14.38-6.51-32-20.35-45.91-5.33-.74.79.23,2.18,1.19,1.55,14.45-9.55,28.92,6.8,41.41,12.66a30,30,0,0,0,17.1,2.66c4.27-.58,10-2.93,9.88-8.16-.16-6.66-5.74-9.45-11-11.85-5-2.29-2.22-7.39,1.89-8.48,4.32-1.15,9.24-.35,13.52.5,7.51,1.49,14.33,4.74,17,12.39,3.22,9.34-1,17.68-9.56,21.9-.33.16-.09.73.25.6Z"/><path class="cls-4" d="M769.92,383c-1.18-3.63-8.9-22.35.85-20.1,6,1.38,10.66,6.31,16.29,8.58,6.86,2.76,15.68-1.52,19.66-7.18,4.57-6.5,4.58-14.31-.4-20.62-9.89-12.53-29.24-13.58-43.25-9a43.22,43.22,0,0,0-20.44,14.66c-5.79,8-6.66,17.53-6,27a.83.83,0,0,0,1.53.41c2.12-3.47,2.54-6.75,3.28-10.69a38.87,38.87,0,0,1,4.9-12.89c4.65-7.65,13.27-13.73,21.84-16.06A39,39,0,0,1,793,339c7.51,3.18,14.19,10.23,10.14,18.67a14.48,14.48,0,0,1-8.6,7.1c-3.46,1.11-6.18-.38-9-2.15-4.87-3.06-9.63-6.51-15.53-7s-9,5-9.17,10.17c-.24,6.57,3.16,13.54,8,17.83.49.44,1.39,0,1.17-.68Z"/><path class="cls-4" d="M790.61,402c11,1.25,21.71,4.37,32.68,5.87A98.88,98.88,0,0,0,837.62,409c3.78,0,11.27-2,13,2.35,2.07,5.28-5.36,8.45-9.22,9.8-5.5,1.92-11.47,2-17.23,2-11.28,0-21.88-3.68-33-4.71-.68-.06-.86.91-.33,1.22,6,3.54,12.89,5,19.52,6.84a73.38,73.38,0,0,0,20.6,2.8c10.19-.14,26.18-4.1,27.43-16.46.48-4.69-.9-9.55-5.6-11.52-5.3-2.22-12.32-.64-17.86-.16A120.21,120.21,0,0,1,811.7,401c-7.16-.76-14.11-1.45-21.25-.12-.69.13-.44,1.06.15,1.13Z"/><path class="cls-4" d="M781,413.29c1.52,3.23,4,4.25,7,6,5.31,3.24,10.59,6.55,15.9,9.8,4.08,2.49,9.68,3.38,14.2,4.83,4.15,1.34,8.41,2.61,12.51,4.1,1.94.71,6.41,3.26,4.11,5.8-1.59,1.76-5,1.82-7.2,2a75.27,75.27,0,0,1-15.26-1.09c-10.31-1.5-19.5-6.25-28.63-11s-18.85-7.59-28.87-9.74c-8.93-1.91-17.24-2.83-25.63-6.8-3.6-1.71-7.85-3.79-9.37-7.73-2-5.27.73-9.43,2.26-14.24.19-.59-.66-.91-1-.41-2.52,4-4.92,6.21-5.4,11.1a12.6,12.6,0,0,0,4.76,10.82c6.58,5.6,16.31,9.7,24.76,11.25,12.91,2.38,25.38,5.25,36.88,11.78,9.45,5.37,18.93,10.91,29.81,12.69,8.81,1.44,31.73,2.35,29.29-12-1.42-8.37-15.28-9.73-21.61-11.73-6.95-2.19-13.14-4.07-19.56-7.65-3.27-1.83-6.59-3.54-9.91-5.29-2.44-1.28-5.64-1.69-7.75-3.5a.82.82,0,0,0-1.29,1Z"/><path class="cls-4" d="M786.72,404.89a25.64,25.64,0,0,0-6.08,5.61c-1.62,2-4,4.47-4.52,7a1,1,0,0,0,.95,1.25c2.84.31,4.77-2.47,6.12-4.56,1.76-2.73,2.11-6.22,4-8.87.19-.27-.18-.62-.45-.45Z"/><path class="cls-4" d="M737.08,375.82c-2.55-2.65-8.46-2.47-11.88-2.85-5.67-.63-11.55,2.18-16.17,5.14-8.6,5.49-15,15.58-18.26,25-2.63,7.55,0,15.67,8.52,16.82,6.18.84,15-1.8,19.53-6.19a.54.54,0,0,0-.52-.89c-5.27,1.29-10.17,3.49-15.64,4-3.17.31-7.23-.27-6.81-4.33a33.77,33.77,0,0,1,2.9-10.59,55.41,55.41,0,0,1,13.15-17.64c6.91-6.24,15.75-7.79,24.67-7.27a.74.74,0,0,0,.52-1.26Z"/><path class="cls-4" d="M720.75,413.47c-4.26-1.13-7.57,1-11.51,2.27a74.22,74.22,0,0,0-13.37,6.46c-9.91,5.74-17.91,14-25.3,22.62-13.28,15.52-20,37.06-20,57.43,0,.59.92.74,1,.14A192.16,192.16,0,0,1,659,475.87c3.42-9.45,8.92-17.32,15.28-25a114.27,114.27,0,0,1,22.26-21c4.06-2.87,8.33-5.27,12.65-7.72,3.91-2.22,7.07-5.73,11.6-6.76a1,1,0,0,0,0-1.9Z"/><path class="cls-4" d="M728,449.86c-22.87,6.52-41.4,23.08-56.56,40.89C655,510.07,643,532.18,632.27,555a461.26,461.26,0,0,1-44.39,74.6c-8.12,11.14-17.63,21.41-29,29.31a58.2,58.2,0,0,1-17.55,8.5c-6.41,1.78-12.66.51-19.12,0a.7.7,0,0,0-.35,1.3c21.88,11.09,44.81-9.31,58.92-24.23,9.6-10.15,17.07-21.92,25.14-33.25,9.09-12.76,18-25.64,26-39.16,13.54-23,25.19-46.9,40.63-68.77,15.13-21.42,34.28-37.94,55.89-52.51a.54.54,0,0,0-.41-1Z"/><path class="cls-4" d="M712.6,439.47A121.49,121.49,0,0,0,660.72,481a92.26,92.26,0,0,0-14.29,31.3c-1.57,6.3-2.37,12.71-4.17,19-1.89,6.56-4.25,13-5.77,19.65a.29.29,0,0,0,.52.22c6.92-9.86,9.82-22.09,14.73-33,4.42-9.78,7.44-20,12.58-29.52,10.82-20,28.35-38,48.78-48,.66-.33.18-1.49-.51-1.2Z"/><path class="cls-4" d="M738.06,375.83c-11.13-10.37-27.71-10.26-41.23-5-14.26,5.53-22.46,19.36-28.89,32.36-5.07,10.24-12.14,18.95-18.62,28.31-4,5.72-11,16.09-5.63,22.85.33.42.94-.11.71-.55-4.3-8.22,6-18.25,10.82-23.71,5.75-6.5,12.27-11.92,17.08-19.24,6.71-10.21,12.48-21.42,21.91-29.45a40.75,40.75,0,0,1,20.52-9.09c8-1.06,15.21,1.49,22.34,4.83.8.38,1.72-.61,1-1.29Z"/><path class="cls-4" d="M688.18,393.67c-8.06,10.9-13,23.56-21.08,34.44-8.28,11.16-20.58,18.12-30.36,27.78a32,32,0,0,0-9.07,15.23c-1.32,5.54,1.65,12.05,4.45,16.63,2.39,3.91,6.07,7.27,9.45,10.29,1.89,1.69,3.68,3.47,5.69,5,1.11.87,1.57,2.18,3,2.45a1.26,1.26,0,1,0,0-2.45c-3.51.63-8.46-6.95-10-9.17-3.11-4.39-6.25-8.87-6.64-14.41-.83-11.76,11.09-21.34,18.95-28.21,8.52-7.45,16-14.92,21-25.2,5.18-10.61,8.91-22.06,14.89-32.25.11-.19-.16-.33-.28-.17Z"/><path class="cls-4" d="M651.68,506.22c-1.13-2.19-3.47-3.26-5.22-4.9a44.11,44.11,0,0,1-9-11c-1.93-3.53-3-7.92-4.19-11.76-1.45-4.8-.29-8.06,1-12.63a1,1,0,0,0-1.51-1.16c-7.52,4.66-3.37,17-1.17,23.39,3,8.64,9.7,17.24,19,19.48a1,1,0,0,0,1.11-1.45Z"/><path class="cls-4" d="M733.66,612.91c-7,6.42-12.43,14.55-18.86,21.53-5,5.4-10.51,10.43-15.72,15.6s-11.1,9.79-15.43,15.64c-2.87,3.88-5.37,9.3-4.39,14.25,1.24,6.28,6.06,10.29,10.46,14.57A29.69,29.69,0,0,0,700,701.07c4.26,1.71,9,2.85,10.59,7.65a2.15,2.15,0,0,0,4.11,0c3.49-8.57-9.6-10-14.84-10.91-5.77-1-12.06-6-14.58-11.19-4-8.12-.28-13.33,5.84-18.63,5.06-4.39,9.73-9.34,14.42-14.11,4.88-5,10.28-9.8,14.52-15.34,5.85-7.62,9.58-16.71,14.31-25a.49.49,0,0,0-.77-.6Z"/><path class="cls-4" d="M712,710.11c7.61,3.23,11.36-6.45,17.44-8.75,8.62-3.27,13,18.63,1.84,21.11-3.57.79-2,6.07,1.49,5.42a8.08,8.08,0,0,0,5.85-3.83c.64-1-.41-2-1.39-1.81a18.61,18.61,0,0,1-5.21.12V728c13.7-1,14-18,8.64-27.19-2.86-4.92-8.94-6.46-14.11-4.9-2.55.77-4.78,2.69-6.74,4.42-1.22,1.08-2.27,2.34-3.47,3.45s-3,1.57-4.36,2.46-1.66,3.19,0,3.9Z"/><path class="cls-4" d="M642.58,721.3c4.55-3,8.75-6,13.63-8.51a29.15,29.15,0,0,1,7.15-2.69c3-.63,6,2.28,8,4,8.31,7.18,6.48,18.24,3.32,27.69-1.42,4.24-3.22,7.92-7.22,10.18-4.36,2.47-11.07,1.84-15.77,1a18.65,18.65,0,0,1-11.56-6.79c-4.29-5.09-2.57-10.27,1.79-14.58a1.07,1.07,0,0,0-1-1.78c-5.62,1.84-7.87,6.64-7.62,12.31.29,6.71,4.27,11.76,10,14.8,12.87,6.78,30,7.34,37-7.6,3.15-6.77,3.4-14.35,2.62-21.67-.66-6.2-2.09-13.87-6.39-18.71-5.75-6.47-13.17-8-21.43-6.6-7.44,1.28-14.59,10.23-15,17.51a1.69,1.69,0,0,0,2.53,1.45Z"/><path class="cls-4" d="M677,717.64c3.09-2.36,6.82-3.63,10.39-5.13,2.14-.9,4.45-2.08,6.81-1.62,3.22.63,5.42,3.63,6.89,6.3,3.75,6.79.73,15.24-4.12,20.48-5.35,5.79-12.26,2.64-19,3.66-2.31.35-2.09,3.4-.58,4.47,1.79,1.27,3.94-.84,5.72,0,1.06.48,2.64-.6,1.8-1.8-1.32-1.85-4-2.4-6.1-2.5l2.08,1.19-.15-.2L678,746c5,.84,9.61,2,14.69.87,4.25-1,7.76-4.08,10.41-7.38,5.48-6.85,7.33-17.49,3.45-25.55-3.68-7.64-11.08-14.75-20.09-10.49-4,1.91-14.61,6.93-12.25,13,.39,1,1.71,1.93,2.77,1.13Z"/><path class="cls-4" d="M703.13,714.24c4.21,4.23,9-1.86,13-3,6.33-1.77,11.34,9.37,11.35,14.12,0,5.5-5.8,9.36-10.12,11.47a13.33,13.33,0,0,1-7.65,1.19c-2.65-.41-4.64-2.58-7-3.75a1.08,1.08,0,0,0-1.6.92c.3,7.36,9.8,8.56,15.49,7.76,7.5-1.06,14.07-6.89,16.54-13.92,2.61-7.44-2.58-17.48-8.67-21.7-7.67-5.31-15.58-.69-21.38,5.21a1.2,1.2,0,0,0,0,1.68Z"/><path class="cls-4" d="M681.42,679.16c-12.66-8.54-29.65-13.37-44.82-9.44a.78.78,0,0,0,0,1.5c8,2,16.6.88,24.78,2.26,6.79,1.14,13.36,3.94,19.85,6.13.28.09.41-.3.19-.45Z"/><path class="cls-4" d="M682,677.45c-2.33-19.17-26.71-26.69-43-24.19-.69.11-.65,1.2,0,1.34,7.92,1.73,16.12,2.33,23.78,5.13,9.17,3.36,13.39,10.42,18.95,17.78.06.08.25.07.23-.06Z"/><path class="cls-4" d="M600.61,650.21c5.9-9,10.41-18.71,16.9-27.4a254.43,254.43,0,0,1,21.85-25c13.21-13.55,33.88-29.29,54.12-23.43,11,3.18,11.49,13.86,12.83,23.32,1.28,9.06,6.85,15.27,15.58,17.78,4.6,1.32,9.49,1.55,14.17,2.48,4.16.83,13.86,2.43,10.68,8.35-5,9.24-19.08,10.12-28,7.9a1.81,1.81,0,0,0-1,3.48c9.15,2.6,19.54-.71,27.38-5.57,8.08-5,8.87-13.66.12-18.07-10.24-5.16-25.38-1.27-32.73-11.62-3.33-4.69-4.15-11.16-5.44-16.63a23.59,23.59,0,0,0-6.93-11.39c-7.14-6.62-18.41-6.22-27.15-4-11.39,2.9-21.35,10.09-30.07,17.69a188,188,0,0,0-25.61,26.67c-7.64,10-16.48,22.24-17.58,35.17,0,.48.61.57.84.23Z"/><path class="cls-4" d="M748.9,627.28c7.27-8.59,3.74-19.74,9.09-29,2.52-4.36,5.35-8,6.74-13a29.77,29.77,0,0,0,.36-12.75c-.69-4-1.89-8.14-4.4-11.42-2.68-3.5-6.82-5.54-10.52-7.77-7.3-4.38-18.22-8.94-26.78-6.07-.42.14-.37.85.11.81,9.6-.84,17.51,2,25.47,7.31,7.63,5.07,10.8,12.85,10.5,21.82s-6.64,15.28-9.15,23.42c-1.27,4.1-1,8.34-1.25,12.56-.28,4.54-.82,9.1-1.3,13.62a.66.66,0,0,0,1.12.46Z"/><path class="cls-4" d="M802.05,446.67c1.69,13.9,5.74,27.3,7.71,41.16a144.49,144.49,0,0,1-.16,43.25c-2.8,17.41-9.69,33.8-17.95,49.29-11.25,21.09-26.86,40-43.87,56.68-10.79,10.6-23.59,19.85-33.28,31.46a.7.7,0,0,0,.84,1.1c13-6.54,24.44-17.71,35-27.56a361.28,361.28,0,0,0,27.38-27.78c13.47-15.54,26-32.32,34-51.38,12.28-29.36,13.55-60.57,4.87-91.05a88.79,88.79,0,0,0-11.81-25.9c-.74-1.09-2.95-.84-2.75.75Z"/><path class="cls-4" d="M800.45,573.44a105.58,105.58,0,0,0-17.55,39.73c-1.45,7.3-1,14.28.07,21.58,1.34,9,.24,15.49-6.43,22.11-5.49,5.45-12.7,9.27-19.43,12.93-7,3.81-14.1,7.47-21.3,10.88a161.69,161.69,0,0,1-22.49,8.42c-7.54,2.29-15.53,2.67-22.94,5.12a.29.29,0,0,0,0,.55c14.09,4.38,31.53-2.22,44.54-7.58,14.79-6.09,30.55-13.14,43.35-22.83,6-4.51,11.74-9.52,13.36-17.11s-1.08-15.68-1.26-23.38c-.2-8.2,1.73-17,3.27-25a106.74,106.74,0,0,1,8.3-24.58.86.86,0,0,0-1.49-.87Z"/><path class="cls-4" d="M610.67,600.43c-11,7.5-21.33,15.77-33,22.38s-24.32,11.33-37.17,15.38c-26.93,8.5-55.52,11.6-83.68,11.12-28.46-.48-56.29-4.68-83.19-14.18-26.61-9.4-52.56-23-74.82-40.37-21.72-17-39.38-37.66-49.4-63.58-9.08-23.48-10.84-49.38-2.9-73.4,7.38-22.35,22.7-39.87,42.8-51.85,14.91-8.88,31.49-14.65,48.24-18.94,10.64-2.72,21.47-4.52,32.11-7.22,13.79-3.5,28.2-4.21,42.31-5.68.31,0,.32-.5,0-.49-14.32.15-28.5,2-42.78,2.69-11.67.58-23,3-34.3,6-17.32,4.5-34.37,10.9-49.69,20.24-20,12.2-35.43,29.72-43.73,51.66-17.71,46.77,2.85,99.16,37,132.59a271.16,271.16,0,0,0,68,48.78c24.82,12.38,51.73,19.54,79.19,22.82a273.59,273.59,0,0,0,102.94-7.57,176.4,176.4,0,0,0,45.22-19c13.63-8.16,27.43-18,37.6-30.32.44-.54-.14-1.48-.79-1Z"/><path class="cls-4" d="M343.86,305.75c-6.35,4.22-13.51,7.38-20,11.5s-12.81,8.58-19,13.14c-10.74,7.92-20.21,17.2-27.14,28.66-5,8.25-8.59,18.2-6.2,27.87,2.44,9.91,14.07,16.07,23.74,13.13.69-.21,1.14-1.26.47-1.78-5.82-4.54-14.46-7.51-15.21-16.07-.7-8.07,4-16.43,8.14-23,6.43-10.07,15-19,23.93-26.89,5-4.37,10.3-8.24,15.52-12.28,5.65-4.37,10.57-9.41,16.1-13.86.25-.21-.08-.63-.35-.45Z"/><path class="cls-4" d="M567.14,297c4.82,3.88,9,8.39,13.94,12.19,5.51,4.25,11.14,8.35,16.43,12.87a134.71,134.71,0,0,1,25.18,28c4.24,6.44,8.18,14.2,8.18,22.08,0,9-9.3,12.32-15.25,17-.67.52-.22,1.57.47,1.78,9.8,3,20.11-3,23.49-12.3s-.94-19.81-5.41-27.77c-6.47-11.49-16-20.63-26.37-28.6-6.09-4.69-12.52-9-18.93-13.22-3.21-2.13-6.51-4.13-9.79-6.17-3.74-2.34-7.92-3.79-11.6-6.23-.27-.18-.6.25-.35.45Z"/><path class="cls-4" d="M520.54,369.08c18.62,2.3,37.88,4.8,56.08,9.51,9.56,2.47,19.33,5.14,28.26,9.43a84.34,84.34,0,0,1,14.46,9c4,3,8,6.08,11.71,9.47s7,7,10.45,10.46a71.32,71.32,0,0,1,6.46,7.33c1.45,1.92,2.14,3.39,4.16,4.7v-4l-.22.17,2.69.7-.05-.08a1.81,1.81,0,0,0-1.56-.89h-.08A2,2,0,0,0,651,427.3l0,.27c.42,2.68,4.58,1.94,4.61-.62,0-4.24-3.36-7.59-5.92-10.74a168.82,168.82,0,0,0-11.51-12.51c-4.51-4.52-9.73-8.25-14.84-12a81.93,81.93,0,0,0-15.19-9.28c-9.6-4.33-20-6.67-30.34-8.23-19.1-2.88-38-4.47-57.31-5.46-.27,0-.25.38,0,.41Z"/><path class="cls-4" d="M578,669.74c-25.29,18-58.8,40-90.27,24-6.88-3.49-13.28-8-19.63-12.35-6.91-4.71-14.18-8.73-21.29-13.11-13.5-8.32-26.32-16-42.32-17.88-.65-.08-.65.84-.14,1,7.89,3.23,16.18,5.49,23.8,9.36,7.92,4,16.26,8.3,23.43,13.54,13.71,10,26.4,22.72,42.11,29.63s30.39,3.78,45.31-3.41c14.45-7,29.63-17.29,39.79-29.83.43-.53-.14-1.5-.79-1Z"/><path class="cls-4" d="M514.59,685.25c-16.78-1.54-31.34-9.4-45.17-18.52-10.28-6.77-23.13-18-36.42-14.91a.78.78,0,0,0,0,1.5c7.34,2.5,14.44,4.31,21.24,8.21,6.42,3.69,12.4,8.13,18.73,12,12.81,7.77,26.37,13.58,41.63,12.64a.45.45,0,0,0,0-.9Z"/><path class="cls-4" d="M424,656.58c2.89,3.19,6.9,4.92,10.08,7.82,3.82,3.49,7.94,6.28,11,10.54,5.79,8.09,11.73,16.8,11.45,27.18a17.23,17.23,0,0,1-6.28,12.43c-5.21,4.52-11.22,5.38-17.84,5-9.75-.63-17.53,3.59-25.21,9.09-9.16,6.56-16.93,14.78-29.08,11.75a42.12,42.12,0,0,1-13.06-5.5c-4.32-2.88-6.54-8-8.22-12.75-6.21-17.41-6-39.11,9.73-51.5.18-.14-.05-.45-.25-.32a33.67,33.67,0,0,0-15.52,22.11,59.93,59.93,0,0,0,1.71,30.91,37.79,37.79,0,0,0,18.18,22.44c11.54,6.39,23.5,2.56,32.67-5.58,4.72-4.19,8.28-9.25,13.8-12.49,6.33-3.7,13.8-1.61,20.53-.89,11.45,1.22,22.35-9,25-19.4s-2.59-23.1-9.5-30.87a59.9,59.9,0,0,0-13.37-11.71A77.44,77.44,0,0,0,432,660c-2.62-1.22-5.3-2.07-7.7-3.73-.2-.14-.4.16-.25.32Z"/><path class="cls-4" d="M377,666.78c-.95-12.61-14.54-19-25.45-20.76-11.22-1.83-25.81,2-34,10.17-9,8.94-2.58,21.14,6.65,26.5,4.86,2.82,11.51,3.39,17,3.57,4.92.16,12.41-.33,15.57-4.59a.41.41,0,0,0-.35-.62c-4.05.2-7.83,2.12-12,2.42a41,41,0,0,1-15.29-2.17,16.13,16.13,0,0,1-10-10.53c-1.4-4.52,1.9-9,5.27-11.59,6.74-5.16,16.39-6.69,24.58-6.71,9.55,0,23.88,4.08,26.91,14.47.18.61,1.18.51,1.13-.15Z"/><path class="cls-4" d="M351.38,695.84c-5.14,3.57-11.4,7.29-17.74,7.76-4.44.33-6.66-1.27-8.18-5.24-2-5.16,3-8.78,6.69-11.18a.82.82,0,0,0-.83-1.42c-7,4-15.12,14.27-6.69,21.4,4.18,3.53,11,2.27,15.63.63,5.69-2,9.41-5.77,12.13-10.94.32-.61-.36-1.46-1-1Z"/><path class="cls-4" d="M359.63,734.52c-1.89,2.76-1.07,6.23-2.6,9.24-2.09,4.1-7.75,5.63-11.91,5.81-3.93.17-7.31-1.63-8.85-5.32-2-4.75,1-8.6,1.71-13.16.13-.85-.87-1.68-1.58-.92-7.46,8.1-6.46,21.8,5.52,24.39a19,19,0,0,0,16.18-4.15c4.06-3.74,7.43-10.74,3.79-15.9a1.33,1.33,0,0,0-2.27,0Z"/><path class="cls-4" d="M353.29,718.7c-2.91,2.63-4.44,6.32-7.94,8.32-4.81,2.75-10.54,3.46-14.85-.48-2.93-2.68-4.5-8.12-2.7-11.73,1.34-2.7,4-4.2,5.18-7.07.34-.82-.74-1.42-1.39-1.07-4.29,2.35-8.35,6.06-9.17,11a16.49,16.49,0,0,0,4.59,14c4.64,4.43,10.94,4.33,16.44,1.93,5.9-2.57,8.82-8.63,10.94-14.26.25-.66-.65-1-1.1-.64Z"/><path class="cls-4" d="M434.5,692.35c-11.53,8.29-16.82,21.16-26,31.48a175.33,175.33,0,0,1-12.21,13,36.34,36.34,0,0,1-7.78,5.31c-3,1.57-6.38,2.21-9.19,4.12-.45.31-.61,1.15,0,1.42,10.65,4.73,23.52-7.69,29.8-14.84,5.12-5.84,8.37-12.25,11.55-19.28,3.4-7.54,8.83-14.33,14.75-20,.59-.57-.2-1.66-.9-1.16Z"/><path class="cls-4" d="M357.38,636.06c-19.62-14.84-48.11-17.37-71.59-13.52-11.2,1.84-24.37,6.54-29,17.91-2.13,5.27-1.27,12.37-.52,17.8,1,7.18,3.22,14.2,4,21.4,1.53,14.08-14.88,19.68-25.13,24.7-5.48,2.68-17.87,10-9.55,16.84,6.59,5.43,17.29,4.22,24.61,1.48a32,32,0,0,0,13.16-9.39,14.83,14.83,0,0,0,1.86-2.63c.29-.58.49-2.32.92-2.66-.21.16.09.45.29.29l0,0c.14-.11,0-.29-.09-.34l-.42-.18a.3.3,0,0,0-.3.08,43.42,43.42,0,0,1-16.77,10,31.13,31.13,0,0,1-13.32,1,19.32,19.32,0,0,1-4.81-1.37c-2.71-1.2-1.7-2.31.09-4.14,3.05-3.12,8-5.65,11.81-7.77,4.3-2.39,8.83-4.27,12.92-7,7.82-5.3,10.18-13.08,10.09-22.11-.1-10.5-3.2-20.66-2.3-31.2,1-12.12,17.79-16,27.46-17.87,12.44-2.43,24.47-1.39,36.83.77,9.93,1.74,20,4.44,28.75,9.58,1.08.63,1.9-.92,1-1.63Z"/><path class="cls-4" d="M327.69,705.31c-7.61,1.15-14.91,2.67-22.66,2.53-8.42-.16-16.77-.85-25.17-1.37-5.5-.34-11-.51-16.5-.93-7.66-.59-15.5-2.51-23.15-2.47a1.24,1.24,0,0,0-.33,2.42c7.17,2.89,15.81,3.78,23.47,4.79,5.86.77,11.76,1.22,17.63,1.88,15.54,1.74,33.26,2.78,47-6a.45.45,0,0,0-.35-.82Z"/><path class="cls-4" d="M323.7,720c-9.57,9.61-22.09,17.29-34,23.72-13.52,7.3-28.65,8.79-43.75,9.62a296.1,296.1,0,0,1-46.3-1.55c-12.37-1.25-24.82-2.48-35.82-8.78-2.81-1.61-13.13-8.2-9.67-12.28,2.71-3.19,8.36-4.12,12.22-5,9.52-2.15,18-5.41,25.59-11.76,6.6-5.51,12.43-16,8.31-24.35-2.23-4.53-6.89-8-10.4-11.5-5.66-5.62-10.75-11.62-13.31-19.29-3.93-11.78,1.39-20.72,11.83-26.19a.66.66,0,0,0-.51-1.2c-8.91,3.11-14.54,10.35-14.6,19.86-.08,11.91,8.52,21.47,16.45,29.28,4.68,4.6,11.25,9.47,10,16.87-1.15,6.74-6.18,12-11.73,15.5-8.07,5.12-18.66,6.63-27.65,9.77-5.78,2-13.41,5.86-10.09,13.1,1.9,4.13,6.73,7.42,10.4,9.86,4.8,3.2,10.42,5.18,15.95,6.7a227.34,227.34,0,0,0,84.65,6.36A79.82,79.82,0,0,0,296.47,746a171.68,171.68,0,0,0,14.62-10.9c5.18-4.18,10.54-8.25,13.57-14.32a.62.62,0,0,0-1-.75Z"/><path class="cls-4" d="M181.34,719.61c-2.61-15.15-18.25-22.87-30.53-29.33A185.2,185.2,0,0,1,102,653.4c-6.92-7.39-10.23-18.48-13.12-28A94.86,94.86,0,0,1,84.52,593c.84-17.16,10.44-35.9,22.12-48.29a.53.53,0,0,0-.75-.75c-3.1,2.84-6.45,4.95-9.37,8a63.37,63.37,0,0,0-6.32,7.95,88.54,88.54,0,0,0-11.92,25.58c-5.74,20.76,1.93,45,11.67,63.44,5.07,9.58,14.09,16.88,22.5,23.42A224.19,224.19,0,0,0,138.82,690c13.65,7.79,34.19,13.93,39.75,30.38a1.44,1.44,0,0,0,2.77-.76Z"/><path class="cls-4" d="M350,632.58c-9.9-5.93-20.45-10.65-30.65-16-10-5.29-19.2-11.94-29-17.62a212.12,212.12,0,0,0-63-24.12c-20.41-4.12-43.21-4.88-63.5.21a70.26,70.26,0,0,0-25.79,12.8c-6.34,4.94-12.64,11.2-13.56,19.53-.09.82,1,.89,1.38.37,2.57-3.46,4.64-7.24,7.4-10.54a49.18,49.18,0,0,1,10.68-9,71.42,71.42,0,0,1,27.62-10.43c20.71-3.5,43.1-1,63.33,4.06,19.94,5,39.91,13.65,57.86,23.61,8.9,4.94,17.49,10.33,26.67,14.76,9.85,4.75,19.88,9.14,29.92,13.48.71.31,1.32-.64.62-1.06Z"/><path class="cls-4" d="M302.43,608.59c-13.73-12-30.83-20.22-47.25-27.87-17.41-8.1-35.12-15.87-53.62-21.11-17.29-4.9-36.48-7.93-54.42-5.32-14.5,2.11-26.61,8.74-29.65,23.95a.94.94,0,0,0,1.82.5c2.65-6.72,5.51-12.46,11.81-16.42,7.25-4.56,16.68-5.45,25-5.77,17.53-.68,35,2.87,51.63,8.08,16.92,5.29,33.29,12.68,49.33,20.17,15.37,7.17,31.11,14.38,45,24.18.23.16.51-.2.3-.39Z"/><path class="cls-4" d="M508.33,193.76c-20.51,5.65-41.47-2.27-62.21.61-9.51,1.32-18.18,6-26.45,10.49-9,4.92-17.53,7-27.7,5.9a.83.83,0,0,0-.58,1.4c5.59,4.67,15.56,3,21.88.74,4.7-1.71,9-4.39,13.45-6.57,5.38-2.62,11.5-4.23,17.3-5.63s12.14-.4,17.92-.22,11.76.55,17.65.93c10,.65,20.78-1,29.1-6.83a.45.45,0,0,0-.35-.82Z"/><path class="cls-4" d="M498.66,190.68c2.52.93,5.15,1.59,7.61,2.66a15.8,15.8,0,0,1,3.46,1.73c.89.69,1.38,1.85,2.4,2.36a1.92,1.92,0,0,0,2.28-.29c3.2-3.23-2.17-6.43-4.68-7.38a21.74,21.74,0,0,0-11.07-.73c-.92.16-.72,1.4,0,1.66Z"/><path class="cls-4" d="M468.17,208.9c-10.64-1.4-26.82-3.55-35.61,4.16a1.2,1.2,0,0,0,.52,2c5.25,1.81,10.46.53,15.77-.28,6.57-1,13.06-2.49,19.64-3.45,1.5-.22.91-2.25-.33-2.42Z"/><path class="cls-4" d="M370.59,657.74a12.18,12.18,0,0,0,7.53.06,84.74,84.74,0,0,1,13.54-2.09A75.06,75.06,0,0,1,415.23,657a.58.58,0,0,0,.44-1c-12.19-8.3-33-5.66-45.19,1.05a.41.41,0,0,0,.1.75Z"/><path class="cls-4" d="M615.74,621.09c-4.18,8.63-9.57,17.06-14.69,25.17-5.76,9.13-15.6,14.21-23,21.84-10.08,10.45-15.75,29.64-1.77,39.59,5.9,4.2,13.13,4.92,19.62,7.79,7.28,3.23,8.4,11.6,11.49,18.08s8.72,8.86,15.66,9.28c6.33.39,12.46-1.68,14.77-8,.42-1.17-1.13-1.81-1.92-1.12-2.87,2.49-5.18,4.31-9.12,4.46a19.38,19.38,0,0,1-9.7-2.07c-5-2.79-6.17-10.45-8.24-15.26a20.62,20.62,0,0,0-11.6-11.66c-6-2.42-12.55-2.91-18-6.55-6.73-4.5-6.9-13.21-4.63-20.11,2.86-8.71,11.73-14.57,18.65-19.85,6.6-5,11.48-10.59,14.8-18.24a207.33,207.33,0,0,0,8.82-22.8c.21-.7-.87-1.18-1.2-.51Z"/><path class="cls-4" d="M585,696.15c6.55,4.72,11.43,11.38,15.5,18.28,3.18,5.39,3.34,13.49,8.29,17.6a.79.79,0,0,0,1.33-.55c.81-6.48-2.33-14.57-6.27-19.63-5.21-6.69-11-12.26-18.51-16.27a.33.33,0,0,0-.33.57Z"/><path class="cls-4" d="M409.83,264.72c4,8.27,12.47,15,21,18.22,9.29,3.53,19.75,3.77,29.36,1.59,19.59-4.44,40.06-23.92,42.92-44.2a.66.66,0,0,0-1.2-.51c-5.51,9-9.75,17.83-17.65,25.16-7,6.49-16.1,9-25.34,10.13a66.92,66.92,0,0,1-24.07-1.65c-4-1-8.12-1.81-11.87-3.59-4-1.91-8-4.21-11.89-6.38a.91.91,0,0,0-1.23,1.23Z"/><path class="cls-4" d="M339.66,259.59c-10.4-.21-20,3.07-29.57,6.89a162.5,162.5,0,0,0-27.25,13.8c-17.41,11.09-31,25.54-42.21,42.81a157.47,157.47,0,0,0-14.22,28.38c-3.27,8.39-4.68,16.84-5.71,25.73A218.92,218.92,0,0,0,219,399.37c-.11,7.81-1.12,15.38.29,23.14a.45.45,0,0,0,.87,0c2.76-14.13,4.52-28.51,6.94-42.73,3-17.44,10.44-34.2,19.25-49.4,9.82-16.92,22.48-32.11,38.38-43.63,16.59-12,35.63-20.1,55-26.44a.37.37,0,0,0-.1-.73Z"/><path class="cls-4" d="M254.07,437.8l.19-.54a1.31,1.31,0,0,0-.35-1.31c-10.62-8.79-23.79-14.86-37.56-15.9-12.76-1-27,8.77-31.07,20.86a.51.51,0,0,0,.85.5c4-3.94,7.91-8,12.68-11,5.6-3.51,12.88-3.48,19.27-3.19,6.65.3,13,2.68,19.26,4.74a116.26,116.26,0,0,1,15.45,6.33.89.89,0,0,0,1.29-.52Z"/><path class="cls-4" d="M230.5,446.63c-12.73-12.5-34-12.94-49.71-6.24-15.34,6.55-22.46,21.88-22.39,37.9h3c-.38-3-.85-5.92-1.32-8.87a.21.21,0,0,0-.39,0c-.47,3-.95,5.9-1.32,8.87-.22,1.73,2.57,2,3,.4,1.64-6.42,3.47-12.61,6.63-18.47,3.47-6.43,8.15-10.67,14.3-14.52,14.86-9.3,33.15-7.16,47.55,1.76a.54.54,0,0,0,.65-.84Z"/><path class="cls-4" d="M211.8,500.81c-5.29-8.2-14.71-13.56-23.24-17.85-8.85-4.46-19.3-7.71-29.3-7.65-17.25.11-30.71,15.07-31.24,32.07a.7.7,0,0,0,1.3.35c1.91-3.9,3.46-7.94,5.7-11.67,2-3.41,4.9-5.64,7.93-8.08a30.91,30.91,0,0,1,17.29-6.52c8.36-.54,17.14,2.45,24.82,5.41,4.61,1.77,8.82,4.42,13.32,6.43s9.83,4,13.05,7.81c.18.21.54-.06.39-.3Z"/><path class="cls-4" d="M194.18,517.53a62.77,62.77,0,0,0-19.76.33c-4.33.78-11,2.14-13.56,6.12a16.43,16.43,0,0,0,6.91,23.91c11.23,5.13,24.14.53,34.64-4.21,9.12-4.11,21.92-8.85,21.27-20.88-.49-9.13-10.77-14.83-18.41-17.16a27.65,27.65,0,0,0-15.23.15c-3,.83-6,2.05-9,3-3.82,1.15-8.19,0-11.84-1.22-3-1-5.82-2.54-8.82-3.6-2.5-.88-5.57-.83-8.17-1a79.24,79.24,0,0,0-20.83,1.23c-11.92,2.2-23.11,8.6-28.28,19.92-2.15,4.71-4.43,13.48-1.68,18.39,3.4,6.07,9.45,4.89,15.26,3.43,7-1.76,12.09-6.08,17.27-10.86a29.05,29.05,0,0,1,26-6.43.9.9,0,0,0,.48-1.74c-10.38-3.13-20.9-1.38-29.29,5.34-5.45,4.37-10.23,8-17.13,9.71-4.52,1.13-8.88,1.28-9.1-4.88a28.88,28.88,0,0,1,1.77-9.81c4.71-14.31,21.53-18.9,34.86-19.94,7.14-.56,14.9-.49,21.51,2.4,5,2.17,10.29,4.14,15.78,3.47,6.13-.74,10.89-5,17.25-5.51,6.17-.45,12,1.9,17,5.28,5.53,3.73,8.94,9.82,5.57,16.17-2.83,5.34-11.88,7.8-17.11,10.1-9.36,4.11-31.34,10.6-36.47-2.87-5.77-15.14,20.57-15.94,29.31-17.16,1-.14.6-1.5-.22-1.61Z"/><path class="cls-4" d="M104.66,544.1C98,550.7,88.36,556.88,78.89,558c-5.67.68-8.26-3.63-8.06-8.75.2-4.91,3.65-9.75,6.57-13.46,6-7.6,14-13.49,22.17-18.49A51.66,51.66,0,0,1,117,510.87c6.73-1.29,13.24-1.41,19.7-4,.47-.19.47-1-.13-1-8.07.84-16.14.75-24.12,2.48-7.47,1.63-14.11,5.26-20.4,9.49-9.55,6.42-19.12,14.16-24.22,24.73-4.51,9.34-.7,21.05,11.05,20.19,5.23-.38,10.31-3,14.38-6.2,3.74-2.91,11.21-6.91,12.41-11.95a.62.62,0,0,0-1-.6Z"/><path class="cls-4" d="M212.06,536a7.42,7.42,0,0,0,5.94-.33,73.71,73.71,0,0,1,10.73-3.22c4.54-1.12,7.88-2.17,12.08.56,3.58,2.33,6.56,6.11,8.87,9.62a.66.66,0,0,0,1.2-.51c-1.48-6.56-6.1-15.6-13.83-15.93-4.31-.19-8.74,1.39-12.74,2.85-4.38,1.6-8,4.65-12.24,6.33a.33.33,0,0,0,0,.63Z"/><path class="cls-4" d="M223.62,546.9c12.64-2.87,20.67,9.79,28.56,17.42,6.75,6.52,13.64,12.76,20.94,18.64q9.8,7.9,19.58,15.84c4.55,3.68,9.21,8.6,14.86,10.55a.87.87,0,0,0,1-1.27c-3.33-5.61-9.56-9.67-14.4-13.87q-9.9-8.6-19.8-17.19c-8-6.87-15.66-14-23.48-21-7.44-6.68-17.06-13.84-27.5-10.07a.49.49,0,0,0,.26.95Z"/><path class="cls-4" d="M202.84,470.14c6.19,2.72,12,5.7,16.58,10.83a115.31,115.31,0,0,1,12.43,17.3c3.44,5.73,4.67,13.19,7.2,19.38,2.06,5.06,3.25,11.61,6.94,15.75a1.07,1.07,0,0,0,1.82-.75c0-6.52-3-13.49-4.85-19.67-2.18-7.19-3.73-14.19-7.74-20.65-7.41-11.93-18-20.59-32-23.08-.51-.09-.92.66-.38.9Z"/><path class="cls-4" d="M72.1,559.47c-6.75,1.62-9.88,14.63-9.53,20.48.57,9.46,10.75,14.2,18.79,10.43A2.89,2.89,0,0,0,79.9,585c-2,0-3.78,1-5.91.86-3.57-.23-5.26-2.26-6.34-5.48-1.14-3.37.61-7.91,1.91-11,1.18-2.8,3.67-5.2,4.31-8.16a1.45,1.45,0,0,0-1.77-1.77Z"/><path class="cls-4" d="M458.67,695.85c2.25,4.49,10.45,4.32,14.84,4.87,7.3.92,14.6,1.67,21.91,2.41,2.13.21,2.26-2.88.48-3.52-4.2-1.51-8.57-2.31-12.68-4.07-3.52-1.51-6.39-4.13-9.49-6.31-3.58-2.51-7.44-4.61-10.9-7.3a116.28,116.28,0,0,0-9.3-7.15l-2.38,4.07c4.68,2.14,10,10.28,11.22,14.91.45,1.66,1.09,3.36,2.7,4.18a2.73,2.73,0,0,0,2.66,0c1.83-1,2.89-.89,5-.42l.84-6.22c-3.63-.09-7.16-1-10.77-1.37-4.69-.43-4.62,6.82,0,7.28,6.19.62,11.63,3.87,18,2.47,2.86-.63,3.09-4,1.56-5.92a4.4,4.4,0,0,0-1.36-1.07c-3.35-1.9-7.13,2.72-4.18,5.41l0-.05,3.06-5.33c-5.8.49-11.21-2.73-17.05-2.79v7.28c3.61,0,7.15.65,10.77.42,4.17-.27,4-5.81,0-6.33s-6.13-.09-9,2.5l2.56-.68c1.31.54-.23-2.05-.69-3.14a28.62,28.62,0,0,0-4.42-6.61c-2.42-3-4.83-7-8.46-8.59-2.72-1.22-5,2.44-2.38,4.07a110.87,110.87,0,0,1,8.87,6.72c3.62,2.77,7.6,5.09,11.42,7.57,7.32,4.75,15.24,6.24,23.08,9.75l1.38-3.27c-6.61-1.81-13.49-2-20.24-3-3.22-.51-6.45-.93-9.68-1.43-2.38-.37-4.37-1.4-6.72-.75a1,1,0,0,0-.59,1.45Z"/><path class="cls-4" d="M542,698.31c8.43-2.94,17.54-6.39,26.63-5.07,2,.3,4-1.57,2.79-3.62-1.49-2.57-1-4.91.05-7.43s-2.74-3.61-4.13-1.74A23.12,23.12,0,0,1,556,688.56l2.08,4.93c3.38-2.52,6.3-5.67,10.55-6.63l-2.61-2,.08.9a.82.82,0,0,0,.57.75l.86.34c2.86,1.12,3.61-4.36.55-4-5,.52-9.48,3.21-13.28,6.43-2,1.72.12,5.43,2.63,4.51,5.62-2.06,9.66-6.09,13.45-10.58l-3.55-2.74c-2.09,3.89-2.61,7.82-.18,11.66l2.13-3.71c-9.85.58-19.69,2.68-28,8.27-.81.54-.32,2,.7,1.65Z"/><path class="cls-4" d="M566.77,688.89c-1.34-.93-3.3-.93-4.87-1.11-1.38-.16-4-.06-4,1.89s2.17,1.88,3.48,2a12.23,12.23,0,0,0,2.66-.31,6.78,6.78,0,0,0,2.76-.86.92.92,0,0,0,0-1.56Z"/><path class="cls-4" d="M298.07,743.5c10.64-1.54,20.32-6.54,30.17-10.62,1.44-.6,2.29-2.89.49-3.74-2.18-1-3-2.73-2.93-5.09,0-1.83-2.88-2.88-3.68-1-2.84,6.72-9.81,9.09-15.27,13.22a1.74,1.74,0,0,0,1.33,3.16c6.49-1.4,11-8.1,17.73-8.29,2.22-.06,2.22-3.51,0-3.45-7.4.21-11.72,7-18.65,8.4l1.33,3.16c6.1-4.4,13.66-6.88,16.93-14.21l-3.68-1c-.09,3.7,1.42,6.95,4.82,8.63l.49-3.74c-10,3.94-19.33,9.5-29.45,13.23a.7.7,0,0,0,.37,1.34Z"/><path class="cls-4" d="M733.54,615.95c-1.75,2.21-2.29,5-3.86,7.39-2.12,3.2-3.14,6.84-6.38,9.24l3.23,3.23c1.44-2.81,3.61-5.11,5.33-7.74,2-3,1.5-7,3.75-9.76l-3.74-2.18c-1.55,6.55-7.75,11-8.62,17.59-.16,1.22,1.1,2.05,2.13,2.13,8.08.63,19.41-2.81,23.29-10.55,4-7.92-5.85-9.6-11.41-8.07-5.91,1.62-6.59,12.36.33,12.62,6.58.25,9-11.16,2-10.52-5.15.47-12.71,8.41-5.89,12.41,6,3.49,18.65-5.08,12.33-11.4-2.56-2.56-6.29-1.6-9.36-.76-2.79.76-5.95,1.48-8.47,2.87-4.39,2.4-4.06,9.36.86,10.88,3.78,1.16,6.89-1.52,9-4.38,1.45-2-.57-4.26-2.55-4.44a4.93,4.93,0,0,1-2.46-.61l2.37,3.08c.72,3.69-1.64,3.12,1,2.11,1.46-.56,2.81-1.3,4.29-1.8,2.17-.73-.18-5.17-2.38-3.92l-.64.25q-2.81.2,2,3.85c.06-.41.38-.59.63-.84,1.23-1.23-2.64-4.34-3.42-3,.58-1,3.83-1.52,5.58-1.52,3.27,0,.41,2.71-.85,3.9-2,1.85-5.66,2.73-8.14,3.64a41.94,41.94,0,0,1-8.68,2.06l2.7,2.06c.38-2.81,3.18-5.54,4.71-7.83a27.31,27.31,0,0,0,4-8.57c.51-2-2.23-4-3.74-2.18-2.48,3-2.42,6.19-4,9.56-1.47,3.2-4.37,5.59-6,8.72-1,1.93,1.18,4.71,3.23,3.23,3.53-2.55,5.5-6.07,7.39-9.92,1.79-3.65,4.05-6.44,2.21-10.56a1.11,1.11,0,0,0-1.74-.22Z"/><path class="cls-4" d="M241.81,704.79c-3.43,2.26-7.37,2.73-10.53,5.63s-1.43,7.3,1.9,9.06c9.94,5.25,20.15.39,28.63-4.84,2.07-1.28,2.84-4.58.81-6.31l-.15-.13.6,4.62.17-.23c1.55-2.08-.55-5.12-2.9-5.06-3.39.09-7.44.79-10.75-.1-2.24-.6-5.25-1.51-7.55-.9-5.29,1.41-13,3-17,6.92-1.91,1.91-1.18,5.77,1.68,6.35a32.2,32.2,0,0,0,13.23-.1c4.14-.86,7.41-3.71,11.57-4.46,2.83-.51,2.87-5.26,0-5.74-3.47-.58-6.38.42-9.61,1.69a23.17,23.17,0,0,1-13.17,1.28l1.68,6.35c1.77-1.78,4.88-2,7.16-2.91a73.81,73.81,0,0,0,7.14-3c2.54-1.31,2.61-.67,5.39-.46s6-.28,8.52,1.33l4.6-4.6-.17-.23a3.9,3.9,0,0,0-6-.77A23.3,23.3,0,0,1,239,713c-2.93-.46-.3-.19-1.88,1.7a11.89,11.89,0,0,1,3.14-2.3c2.11-1.24,4.48-2.46,4.91-5.1.29-1.78-1.49-3.75-3.31-2.55Z"/><path class="cls-4" d="M211,665.49c3.52,5.33,5.66,9.65,5.45,16.28-.2,6.41-3.51,11.6-5.88,17.36-3.27,7.91,1.52,16.69,7.41,21.82,6.83,5.94,16.13,5.88,24.46,3.77,6.71-1.7,18.69-7.41,20.57-14.77.09-.36-.26-.81-.66-.66-3.32,1.29-5.73,4.3-8.58,6.37a38.87,38.87,0,0,1-12.23,5.81,22.07,22.07,0,0,1-25.15-9.78c-5.29-8.89,1.38-16,2.31-24.76a37,37,0,0,0-1-12.54c-.84-3.46-4.2-6.51-6.36-9.14-.15-.18-.45.05-.32.25Z"/><path class="cls-4" d="M248.68,656.7c.74-10,1.57-20.21,8.11-28.36,6.15-7.66,16.51-10.49,25.91-11.21,10.14-.78,20.3,1.92,30.2,3.68,4.95.88,9.83,1.92,14.72,3.06,4,.94,7.78,2.05,11.86,1.29a1,1,0,0,0,.23-1.72c-4.36-2.58-9.8-3.16-14.69-4.29-6.05-1.4-12.19-2.37-18.29-3.52-10.63-2-21.15-3.52-31.89-1.36a36,36,0,0,0-21.28,13.48c-6.3,8.76-6.29,18.59-5.54,28.95a.33.33,0,0,0,.66,0Z"/><path class="cls-4" d="M617.23,366.62c1.24-6-11.85-8-13.75-2.73-1.19,3.3,2.25,6.47,5.28,6.86,1.92.25,9.15.42,9.1-2.75a.37.37,0,0,0-.37-.37,13.41,13.41,0,0,0-2.24.71,8.2,8.2,0,0,1-4-.14c-1-.23-6-1.6-5.27-3.26.65-1.39,4.11-.75,5.21-.59,1.54.22,4,1,4.76,2.43a.7.7,0,0,0,1.28-.17Z"/><path class="cls-4" d="M309.76,367.37c-5.24-1.16-10,.31-14.42,3.15-3.38,2.18-6.44,6.79-1.46,9.22,4.21,2,11.5-1.45,14.54-4.46,1.53-1.51,6-6.9,1.16-7.33-.35,0-.45.41-.26.63,1.61,1.9-.23,2.49-1.57,3.51a23,23,0,0,1-2.68,1.85c-2.2,1.24-7.3,3.94-9.71,2-.72-.58,4-3.88,4.59-4.25,3.12-1.95,6.32-2.27,9.81-3a.66.66,0,0,0,0-1.27Z"/><path class="cls-4" d="M478.51,566c-12.38-5.51-26.16.51-32.18,12.42a19.84,19.84,0,0,0-.36,16.4,21,21,0,0,0,2.94,4.77,50.22,50.22,0,0,1,5-4.18,11.32,11.32,0,0,1-.65-2.56,20.77,20.77,0,0,1,.61-9.77c2.72-8.37,14.18-12.12,21.93-10.6,8.95,1.75,13.14,11.93,9.58,19.87-4.54,10.13-14.49,8.85-23.69,8.3q-.2.89-.43,1.78c5.11,1.83,11,1.59,16.16.43,5.5-1.23,8.71-5.41,11-10.3A20,20,0,0,0,478.51,566Z"/><path class="cls-4" d="M378,332.12l-9.21,8a17.42,17.42,0,0,0-.75,1.75q-.4,1.05-1,2.59a30.25,30.25,0,0,1-1.31,4.05c-1.8,8.56-.82,14.93,7.6,20.12,4.49,2.77,18.1,7.83,24,5.27-8.16,3.54-15.9,8.43-23.56,13.13-9.18,5.62-26,13.73-29.66,25.26,5.28-6.83,21.79-8.89,29.45-10.29q1.68-.14,3.06-.22t2.29-.07a55.11,55.11,0,0,1,5.9.29,49.58,49.58,0,0,1,6.3,1.17,11.28,11.28,0,0,0,1.48.58c.6.2,1.3.39,2.1.59a2.59,2.59,0,0,0,.75.22,6.53,6.53,0,0,1,1.2.37,4.46,4.46,0,0,0,1.79.74,6.14,6.14,0,0,0,1,.74c.44.3.91.64,1.4,1l2.22,1.79h.31c0,.2.19.38.59.53A3.17,3.17,0,0,0,405,410l.95-.6h.15a1.23,1.23,0,0,0,.47-.15,1.38,1.38,0,0,0,.24-.3,1.22,1.22,0,0,1,.24-.3l.64-.6q1-1.19,1.12-1.34a.62.62,0,0,1,.24-.37.64.64,0,0,0,.24-.37l3,2.08-19.13,17.19c-5.2-5.53-13.21-9-24.05-10.56a4.43,4.43,0,0,1-1.54-.15H366a3.77,3.77,0,0,1-1.38-.15H363c-.52,0-1.24,0-2.18.07s-2,.13-3.13.23a17.22,17.22,0,0,1-2.2.23,28.15,28.15,0,0,0-3.15.38,80.58,80.58,0,0,0-13.21,3.07q-4.1,1.24-7.17,2.32a49.7,49.7,0,0,0-5.31,2.19l-2.14-1.25c.52.3,15.82-12.85,17.05-14.41,8.07-10.15,16.57-28.85,30.86-30.31-15.62-5.81-33.13-26.19-9.17-37.26a16.23,16.23,0,0,1-1.93.76q-.92.29-1.76.52L355.77,342a13.38,13.38,0,0,1-2.5.35,15.58,15.58,0,0,1-2.47.12h-.68a.54.54,0,0,1-.39-.12H348.5a.53.53,0,0,1-.39-.12h-.27a3.47,3.47,0,0,1-1.53-.23,3.74,3.74,0,0,0-1.1-.35,3.82,3.82,0,0,0-1.94-.58l-2-.35a4.44,4.44,0,0,1-1.18-.23h-.54a2.68,2.68,0,0,1-.79-.12H336.2a1.73,1.73,0,0,1-.83.12h-.27l-1.73,1.28a.82.82,0,0,0-.36.47c0,.08-.23.27-.65.59a5.42,5.42,0,0,1-1.07,1,15.11,15.11,0,0,0-1.56,1.36h-.14a.53.53,0,0,1-.3.12h-.14a1.52,1.52,0,0,1-.89.36H328l-.18-.47.09-.47q.94-4.82,6-8.5a23.71,23.71,0,0,1,10.73-4.65l2.05-.34a3.41,3.41,0,0,0,1.08-.11h.93l13.69,3.27a.45.45,0,0,0,.49.34h.8c0,.08.07.11.26.11h.54c.18,0,.52,0,1-.06l1.83-.17a9.51,9.51,0,0,0,2.89-.62q1.81-.62,5.41-1.75a4,4,0,0,0,1.52-.45l.14-.11a.46.46,0,0,0,.28-.11Z"/><path class="cls-4" d="M396.32,430.17,384,441.81a20.21,20.21,0,0,0-.89,2.26c-.31.9-.68,2-1.14,3.29a34,34,0,0,1-1.43,5q-.31,1.89-.62,3.85c-.2,1.3-.35,2.58-.42,3.82a58.32,58.32,0,0,0,0,9.78c0,.66-.06,1.42-.05,2.27s0,1.78.11,2.81c0,1.31.07,2.32.09,3s0,1.34,0,1.91a11.25,11.25,0,0,0,0,1.55,13.8,13.8,0,0,1,0,1.69l-.55,8.79a93.83,93.83,0,0,1-8.15,14.89A130.18,130.18,0,0,1,360,520.35v.14a.53.53,0,0,0-.21.31l0,.56a.49.49,0,0,0-.2.31l0,.42c.22-3.71,29.75-13.29,34.92-14.77q2.05-.43,3.73-.74t2.79-.47q3.89-.56,7.2-.75a74.37,74.37,0,0,1,7.69,0,14.41,14.41,0,0,0,1.81.29c.72.08,1.57.15,2.54.19a3.43,3.43,0,0,0,.9.08,8.8,8.8,0,0,1,1.45.14,5.69,5.69,0,0,0,2.16.38,6.25,6.25,0,0,0,1.15.53c.53.2,1.09.45,1.68.73L430.2,509l.37-.05c0,.19.22.32.7.39a4.56,4.56,0,0,0,1.27,0l1.14-.72.18,0a2,2,0,0,0,.56-.22,2,2,0,0,0,.3-.32,1.52,1.52,0,0,1,.29-.32l.78-.66c.79-.85,1.25-1.33,1.37-1.44s.1-.22.3-.39.29-.3.3-.39l3.53,1.43L418.52,525q-9.26-6-28.74-5.23a6.85,6.85,0,0,1-1.85.12l-1.86.27a6.08,6.08,0,0,1-1.66.11l-1.86.27q-.93.14-2.61.45c-1.12.21-2.37.46-3.74.75a26.5,26.5,0,0,1-2.62.59q-1.68.32-3.75.89a128.76,128.76,0,0,0-15.49,5q-4.74,1.81-8.27,3.29t-6,2.83l-2.75-.71c.67.17,17.25-14.25,18.56-15.89,9.78-12.28,10.27-28.77,6.67-40.24-3.13-10-1.58-26.74,13.78-35.27a26.83,26.83,0,0,1-2.61,1.28c-.83.35-1.63.67-2.4,1l-5.18,2a21.93,21.93,0,0,1-3.43.89,25.4,25.4,0,0,1-3.42.6l-.95.13a.85.85,0,0,1-.57-.07l-1.7.23a.82.82,0,0,1-.56-.07l-.38.05a5.58,5.58,0,0,1-2.17,0,6,6,0,0,0-1.59-.21,6.08,6.08,0,0,0-2.8-.34l-2.83,0a7.24,7.24,0,0,1-1.7-.06l-.76.11a4.54,4.54,0,0,1-1.13,0l-3.62.48a2.76,2.76,0,0,1-1.15.3l-.38.05-2.18,1.87a1,1,0,0,0-.41.63c0,.1-.28.38-.8.83a7,7,0,0,1-1.31,1.39,20.2,20.2,0,0,0-1.9,1.91l-.19,0a.74.74,0,0,1-.39.19l-.19,0a2.28,2.28,0,0,1-1.17.59l-.38.05-.35-.53,0-.58q.32-5.93,6.69-11.38a36.22,36.22,0,0,1,14.44-7.82l2.88-.81a5.41,5.41,0,0,0,1.53-.35l1.33-.18,19.85,1.52q.16.41.73.33l1.13-.15c0,.1.12.13.37.09l.75-.1c.25,0,.72-.12,1.42-.26s1.55-.32,2.56-.56a15.75,15.75,0,0,0,4-1.32q2.5-1.12,7.49-3.22a6.71,6.71,0,0,0,2.11-.85l.2-.17a.76.76,0,0,0,.39-.19Z"/><path class="cls-4" d="M440.89,352.51c3.72,3.29,17.16,18.05,23.87,15.17-11,4.74-19.75,14-29.25,22l.17,14.15,12.85,5.92,9.2-6.81,2.28,2.8-20.19,16h-.63a9.17,9.17,0,0,1-2.2-.39c-.94-.26-1.55-.42-1.81-.47a27.8,27.8,0,0,1-3.7-2.4,4.26,4.26,0,0,1-.94-.77l-.47-.46a2.94,2.94,0,0,0-.78-.54q-.47-.23-1.63-.92a8.57,8.57,0,0,0-2.87-1l-1.39-.46a5.74,5.74,0,0,1-1.16-.15l-1.47-.3a6.7,6.7,0,0,1-1.46-.46,14,14,0,0,0-3-.61,15.81,15.81,0,0,0,5.25-11.56c.15-12.06-1.52-22.32,9.3-29.68-2.14,1.46-8-4.35-8.34-5.9-.91-3.64,6.25-5,9.55-6.93q4.19-2.48,8.85-5.91Zm-5.7,11c.4.38.32,3.29.76,4.13a6.55,6.55,0,0,0,4.68,3.6c-2.34,4.73-5.8,7.21-5.11,13,1.53-.7,2.64-2,4.13-2.71a1.87,1.87,0,0,0,.5-.34,1.56,1.56,0,0,1,.36-.27,3.5,3.5,0,0,0,.43-.27l.36-.27s.26-.2.65-.47a8.35,8.35,0,0,0,.86-.67,17.08,17.08,0,0,0,2.72-1.81q1.41-1.13,2.4-2.07c-2-1.83-4.77-3.13-6.33-4.56C439.36,368.66,437.5,365.65,435.2,363.47Z"/><path class="cls-4" d="M489.2,352.51l19.58,6.54,0,.13.24-.25a6.69,6.69,0,0,1,1.29-1.25,4.12,4.12,0,0,1,1.87-1,1,1,0,0,0,.4-.13H513a1,1,0,0,0,.4-.12h.42l.52-.25q-.42.87-1.16,2.36a13,13,0,0,0-1,2.32c-.78,2.32-1.21,4.22-3.05,5.86-1.15,1-4.94,4.31-6.64,3.72,3.06,1.06,6.9,2.38,9,4.95s1.63,8.15,2.1,11.41l2.55,17.7a5.28,5.28,0,0,0,.34.74l.3.44.07.44a1.28,1.28,0,0,0,.22.45l0,.3q.37.45,1.3,1.49.17.15,1.72,1.2a.32.32,0,0,0,.35.3h.16a.16.16,0,0,0,.18.15l2.45-1.94L526,410l-11.72,11.63h-.94a6.73,6.73,0,0,1-4.85-2.18,19.65,19.65,0,0,1-3.67-5.37,23.84,23.84,0,0,1-1.45-3.48,23.44,23.44,0,0,1-.9-2.84l-.13-1c-.1,0-.16-.1-.19-.3l-.09-.74a.66.66,0,0,1-.21-.44l-.11-.88-18.55,17.28a28.17,28.17,0,0,1-9.84-8.54A21.3,21.3,0,0,1,469.07,402l-.05-.73a1,1,0,0,1,.12-.44l-.1-1.45a1,1,0,0,1,.12-.44l0-.29c0-.09.29-1.58.89-4.44a30.65,30.65,0,0,1,11-18.15c.48-.39-2-3.35-2.44-3.69a9.8,9.8,0,0,0-5.41-2c-.14,0-.13,0,0,0,5.68-3.19,1.2-8.09-.76-12.4.11.25.26.37.45.37h.84c0,.08.11.12.29.12h2a3.41,3.41,0,0,0,.7-.06,2.8,2.8,0,0,0,.54-.19h.28a24,24,0,0,0,6.4-1.9,17.82,17.82,0,0,0,5.32-3.64ZM477,360.81c.29,0,2.09,4.09,2.15,4.4.24,1.26,0,4.25-1.63,4.62,1.5.83,3.52,1.36,4.8,2.54.61.57,1,2.34,1.62,2.65l15,7.53c-.33-.17-.28-2.69-.4-3.06a9.86,9.86,0,0,0-1.67-2.86c-1.71-2.45-3.36-5.11-6.32-6.18,1.31-.48,4.66.25,4.8-1.83.22-3.18-7-4.46-9-5.16l-7.62-2.65Zm7.29,17.81a18.51,18.51,0,0,0-3,6,18,18,0,0,0-.39,6.11l.18,2a6.27,6.27,0,0,0,.48,2c1.28,5.07,4.16,10.28,8.7,15.64l1.6-.9,9.61-9.14-1.76-13.88Z"/><path class="cls-4" d="M533.76,352.51a49.29,49.29,0,0,1,7.74,6.36,16.9,16.9,0,0,1,4.5,7.79l14.14-14.15,11.73,8.55,4.56-4.37,2.28,1.61a1,1,0,0,1-.14.5l-.21.25a12.76,12.76,0,0,0-3,8.12c-.08,3-2.64,6.67-6.22,6.76,1.56,1.45,3.78,2.33,5.47,3.82,7.35,6.46,8.3,17.26,10.76,26.3a7.68,7.68,0,0,0,1,1.77,3.77,3.77,0,0,1,.66,1l.6.52c.27.25.47.42.6.52s.47.4,1,.9a3.83,3.83,0,0,0,1.33.9l2.51-2.54,3.18,2.54-11,11.94a17.72,17.72,0,0,1-6.75-3.72,34.6,34.6,0,0,1-5.1-6.1c-.63-1-.72-2.91-1-4.07l-2.54-10.28c-.78-3.17-.9-7-2.42-9.88-1.77-3.33-4.45-6.15-6.81-9.06a41.92,41.92,0,0,0-3.66-4.22c-1.14-1.07-2.9-1.39-3.89-2.4,2-.14,6.93-.32,7.81-2.62,1.34-3.53-5.61-7.53-8.3-5.07s-4.27,4.62-8.47,5c-2.23.21-4.48-.44-6.64-.22a19.72,19.72,0,0,1,9.7,8.28c2,3.22,2.35,7,3.14,10.69l3.53,16.29a20.26,20.26,0,0,0,2.1,3,17.89,17.89,0,0,0,2.48,2.55,2.39,2.39,0,0,1,.77.68,5.62,5.62,0,0,0,.52.6l.47.38c-3.72,5.2-7.1,8.61-10.12,10.18l-13.55-10.48,3.58-4.66c-2.16-11.23-2.62-23.61-10-32.76-1.08-1.32-2.28-3.87-4-4.15,1.19-.84,3.19-.75,4.21-2.4.81-1.33.6-3.45-1.16-3.8-.79-.16-2.41.82-3.18,1.09l-1.59-1.76Z"/><path class="cls-4" d="M447,449.08l.49-.39s3.76,4,4.16,4.3c3,2.49,9.43,4.29,11.7-.24a17.92,17.92,0,0,0,2.07,1.33c-2.7,3.25-5.91,6.2-8.85,9.25L460.8,503a7.19,7.19,0,0,0,1.2,3.54,6.37,6.37,0,0,0,3.4,2l3.88-2.85,2.94,2-15,11.35a12.11,12.11,0,0,1-7.48-1.91q-4.53-3-5.3-6.79a6.08,6.08,0,0,1-.37-1.67l-4.93-44.94-4.84-5.52C434.6,458.49,444.51,451,447,449.08Zm3.5-23.63,11-.46-4.93,15.72-8.11.42Z"/><path class="cls-4" d="M529.08,449.31c-2,2.78-4.6,3.38-7,3.54-.54,1,0,1.7-.47,2.46a14.55,14.55,0,0,0-1.43,3.86,14.14,14.14,0,0,0,1.29,2.06c3.38-3.39,6.87-6.77,9.9-10.42Z"/><path class="cls-4" d="M534.93,426.48c-2.38,2.44-5.14,4.08-9,3.25-.68,1.23-.13,3.29-.73,4.25a18.49,18.49,0,0,0-1.81,4.9,16,16,0,0,0,1.32,2.58c4.29-4.31,9-8.56,12.88-13.19A18,18,0,0,1,534.93,426.48Z"/><path class="cls-4" d="M509.92,426.25l18.91,4-4.14,11.17-15.35-2.81.18,14.39,18-.34-6.16,8.5-11.77-.28.52,41a21.32,21.32,0,0,0,.58,2.42,3.2,3.2,0,0,1,.74,1.07,3,3,0,0,0,.84,1.15c.3.25.86.65,1.66,1.24s1.38,1,1.74,1.31a28.94,28.94,0,0,0,4.4,1.8l7.07-4.48a.39.39,0,0,0,.19.29v.14c0,.09.09.14.27.15a1.17,1.17,0,0,1,.55.16c.19.1.27.17.28.22s.19.17.55.36a2.29,2.29,0,0,1,.92,1l-20.63,13.42A69.26,69.26,0,0,0,485.83,510q7-4.34,6.94-10.41l-.6-38.69-9.93-.66,1.89-7.55,7.91-.1-.24-15.25Z"/><path class="cls-4" d="M569.91,453l22.8,20.85L559.46,492.7l-.92,13.88,14.88,6.78,11.87-5.56,2.39,2.87L562,523.43l-.73-.06a14,14,0,0,1-2.54-.55c-1.08-.32-1.78-.51-2.08-.59a35.1,35.1,0,0,1-4.16-2.5,5,5,0,0,1-1.05-.79l-.53-.46a3.84,3.84,0,0,0-.88-.56c-.36-.17-1-.5-1.87-1a12.46,12.46,0,0,0-3.33-1.17l-1.62-.55a8.52,8.52,0,0,1-1.36-.24l-1.72-.42a10.12,10.12,0,0,1-1.71-.55,21.14,21.14,0,0,0-3.53-.84q6.32-4.12,6.72-10.42l2.48-39.28a72.12,72.12,0,0,0,13.46-4.26q5.73-2.43,12.31-5.95Zm-8.62,11.95-1.47,22.23a6.18,6.18,0,0,0,2.66-.93l2.88-1.48a2.6,2.6,0,0,0,.67-.3,1.87,1.87,0,0,1,.48-.25,5,5,0,0,0,.57-.24l.48-.25c.06,0,.35-.19.87-.43a11.13,11.13,0,0,0,1.15-.62,22.73,22.73,0,0,0,3.64-1.64q1.93-1.05,3.29-2Z"/><path class="cls-4" d="M449.1,674.07c-.25,3.71,5.11,5.59,7.18,7.82a48.58,48.58,0,0,0,5.48,5.1c1,.76,1.88,1.56,2.78,2.39l.84.86a1.62,1.62,0,0,0,2.14-.79c-6.33-.47-5,11.06,2.17,8,7.35-3.15,1-11-2.67-14-2.95-2.45-5.59-5.2-8.54-7.62-1.8-1.48-5.26-3.68-7.75-3.39a1.67,1.67,0,0,0-1.62,1.62Z"/><path class="cls-4" d="M399.71,202.24c-3.6,1.15-7.56,2.63-10.41,5.16-2.64,2.34-5.65,7.35-2.38,10.43a2,2,0,0,0,2.35.3c2.57-1.53,3.5-5.12,5.42-7.33a89.37,89.37,0,0,0,6-7.24.91.91,0,0,0-1-1.33Z"/><path class="cls-4" d="M549.34,155.46c22.71,15.51,35.42,41,27.74,68.35-3.47,12.36-11.87,23.34-21.47,31.67-4.21,3.65-9.67,6.24-14.64,8.64-6.28,3-12.52,6.16-18.85,9.08a.33.33,0,0,0,.17.61c28.31-3.12,55.32-21.12,63.26-49.42,4-14.43,2.86-30.42-4.15-43.69-6.29-11.93-19-21.9-31.73-26-.5-.16-.73.53-.34.8Z"/></g></svg>